<svg xmlns="http://www.w3.org/2000/svg" width="642" height="150" viewBox="0 0 642 150">
    <defs>
        <linearGradient id="a" x1="-.032%" x2="100.007%" y1="49.983%" y2="49.983%">
            <stop offset=".541%" stop-color="#EFC23F"/>
            <stop offset="100%" stop-color="#E064F7"/>
        </linearGradient>
        <linearGradient id="b" x1="8.833%" x2="91.169%" y1="49.636%" y2="50.374%">
            <stop offset=".541%" stop-color="#8CDAFE"/>
            <stop offset="100%" stop-color="#E064F7"/>
        </linearGradient>
        <linearGradient id="c" x1="8.84%" x2="91.176%" y1="49.628%" y2="50.366%">
            <stop offset=".541%" stop-color="#8CDAFE"/>
            <stop offset="100%" stop-color="#E064F7"/>
        </linearGradient>
        <linearGradient id="d" x1="8.839%" x2="91.175%" y1="49.634%" y2="50.372%">
            <stop offset=".541%" stop-color="#8CDAFE"/>
            <stop offset="100%" stop-color="#E064F7"/>
        </linearGradient>
        <linearGradient id="e" x1="12.175%" x2="87.827%" y1="61.032%" y2="38.957%">
            <stop offset=".541%" stop-color="#EFC23F"/>
            <stop offset="100%" stop-color="#E064F7"/>
        </linearGradient>
        <linearGradient id="f" x1="29.997%" x2="68.957%" y1="30.651%" y2="67.65%">
            <stop offset=".541%" stop-color="#8CDAFE"/>
            <stop offset="100%" stop-color="#E064F7"/>
        </linearGradient>
        <linearGradient id="g" x1="10.949%" x2="89.052%" y1="56.33%" y2="43.682%">
            <stop offset=".541%" stop-color="#8CDAFE"/>
            <stop offset="100%" stop-color="#E064F7"/>
        </linearGradient>
        <linearGradient id="h" x1="38.325%" x2="66.453%" y1="38.879%" y2="69.429%">
            <stop offset=".541%" stop-color="#E9A33C"/>
            <stop offset="100%" stop-color="#E064F7"/>
        </linearGradient>
        <linearGradient id="i" x1="12.248%" x2="87.744%" y1="61.018%" y2="38.966%">
            <stop offset=".541%" stop-color="#EFC23F"/>
            <stop offset="100%" stop-color="#E064F7"/>
        </linearGradient>
        <linearGradient id="j" x1="11.376%" x2="88.632%" y1="58.075%" y2="41.939%">
            <stop offset=".541%" stop-color="#EFC23F"/>
            <stop offset="100%" stop-color="#E064F7"/>
        </linearGradient>
        <linearGradient id="k" x1="-.016%" x2="99.992%" y1="49.979%" y2="49.979%">
            <stop offset=".541%" stop-color="#8CDAFE"/>
            <stop offset="100%" stop-color="#E064F7"/>
        </linearGradient>
    </defs>
    <g fill="none" fill-rule="evenodd" transform="translate(-70 -169)">
        <circle cx="556" cy="258" r="13" fill="url(#a)" fill-rule="nonzero"/>
        <path fill="url(#b)" fill-rule="nonzero" d="M189.896 47.342L40.745 150.31c-11.63 8.04-27.543 5.094-35.56-6.567-8.018-11.66-5.08-27.62 6.548-35.659L160.885 5.092c11.628-8.04 27.543-5.094 35.56 6.567 8.017 11.685 5.08 27.643-6.549 35.683z" transform="translate(201 58)"/>
        <path fill="url(#c)" fill-rule="nonzero" d="M189.969 47.39L40.817 150.36c-11.629 8.039-27.543 5.093-35.56-6.568-8.018-11.66-5.08-27.619 6.548-35.659L160.957 5.164c11.629-8.04 27.543-5.094 35.56 6.567 8.018 11.661 5.08 27.62-6.548 35.659z" transform="translate(680 180)"/>
        <path fill="url(#d)" fill-rule="nonzero" d="M189.824 47.462L40.672 150.432c-11.628 8.04-27.543 5.094-35.56-6.567-8.017-11.661-5.08-27.62 6.549-35.66L160.812 5.238c11.63-8.04 27.544-5.095 35.56 6.566 8.018 11.661 5.081 27.644-6.548 35.66z" transform="translate(34 228)"/>
        <path fill="url(#e)" fill-rule="nonzero" d="M773.755 34.807L563.85 179.632c-8.66 5.979-20.522 3.785-26.488-4.894-5.966-8.68-3.777-20.566 4.884-26.545L752.15 3.368c8.66-5.979 20.522-3.785 26.488 4.894 5.966 8.656 3.777 20.566-4.884 26.545z"/>
        <path fill="url(#f)" fill-rule="nonzero" d="M323.29 12.472c10.596 10.648 9.158 26.318-3.257 34.905L221 115.534c-7.737 5.325-9.69 15.925-4.363 23.683 5.327 7.734 15.931 9.685 23.692 4.36l9.52-6.552c12.702-8.722 30.055-5.517 38.803 7.155 8.725 12.697 5.52 30.043-7.158 38.789L49.156 342.894c-12.701 8.722-30.055 5.518-38.803-7.155C-.686 324.705.808 308.442 13.655 299.6l63.94-44.017c7.737-5.324 9.69-15.949 4.363-23.682-5.326-7.734-15.93-9.685-23.692-4.361l-.723.506c-12.267 8.432-29.066 5.348-37.502-6.915a26.862 26.862 0 0 1-4.754-15.29c-.006-8.573 4.07-17.005 11.672-22.246L285.736 5.48c12.268-8.432 29.042-5.348 37.502 6.915l.053.077z" transform="translate(260 56)"/>
        <path fill="url(#g)" fill-rule="nonzero" d="M281.494 51.617L44.48 214.627c-12.677 8.745-30.054 5.54-38.803-7.156-8.749-12.673-5.543-30.043 7.158-38.789L249.85 5.672c12.677-8.745 30.055-5.54 38.803 7.156 8.725 12.697 5.52 30.068-7.158 38.79z" transform="translate(260 187.304)"/>
        <g fill-rule="nonzero">
            <path fill="url(#h)" d="M249.175 57.56c-5.16-7.686-14.876-10.408-23.097-7.06l-9.91-14.383 19.288-13.276c5.666-3.903 7.113-11.662 3.207-17.324-3.906-5.662-11.669-7.108-17.335-3.204L106.88 81.052c-5.521 3.807-7.353 11.324-3.81 17.01 3.786 6.072 11.838 7.71 17.673 3.71l15.575-10.721c3.881-2.675 9.186-1.687 11.838 2.192 2.676 3.88 1.687 9.18-2.194 11.83l-136.46 93.92c-8.8 6.047-9.813 17.178-2.267 24.72 7.546 7.541 20.927 8.77 29.727 2.722L243.774 84.112c8.656-5.951 11.235-17.83 5.4-26.552z" transform="translate(469 147)"/>
            <path fill="url(#i)" d="M244.136 34.984L30.116 182.223c-8.68 5.975-20.566 3.782-26.546-4.891-5.979-8.674-3.785-20.553 4.895-26.528L222.485 3.566c8.68-5.976 20.566-3.783 26.545 4.89 5.98 8.65 3.785 20.529-4.894 26.528z" transform="translate(469 195.91)"/>
            <path fill="url(#j)" d="M134.437 22.84L19.7 101.798c-5.666 3.903-13.43 2.482-17.335-3.205-3.906-5.662-2.483-13.42 3.207-17.323L120.309 2.313c5.666-3.904 13.43-2.482 17.335 3.204 3.881 5.662 2.459 13.42-3.207 17.324z" transform="translate(570.02 147)"/>
        </g>
        <circle cx="253" cy="295" r="24" fill="url(#k)" fill-rule="nonzero"/>
    </g>
</svg>
