<svg xmlns="http://www.w3.org/2000/svg" width="1920" height="133" viewBox="0 0 1920 133">
    <path fill="none" fill-rule="evenodd" stroke="#FFF" stroke-width="2" d="M29.61 104.363c-44.696-44.551-38.08-65.188 19.846-61.91 86.889 4.917 73.872 81.68 156.264 77.75 82.391-3.93 146.365-77.75 233.517-77.75 87.152 0 86.3 79.76 179.49 77.75 93.187-2.01 117.862-61.11 172.936-61.11 55.073 0 63.28 61.11 117.147 61.11 53.867 0 104.034-81.715 175.67-85.101 71.637-3.387 86.833 89.441 150.305 79.246 63.471-10.196 63.323-91.672 125.748-91.672 62.426 0 89.722 118.196 204.206 108.023C1679.223 120.526 1630.2 2.37 1718.992 1.102c88.792-1.268 82.738 91.975 139.384 98.043 29.375 3.146 50.053-22.344 62.034-76.47" opacity=".11"/>
</svg>
