<svg xmlns="http://www.w3.org/2000/svg" width="37" height="37" viewBox="0 0 37 37">
    <path fill="#6146F5" fill-rule="evenodd" d="M.594 17.884a.583.583 0 0 1-.588-.615s-.013.204 0 0C.64 7.626 8.662 0 18.466 0c10.217 0 18.5 8.282 18.5 18.5 0 10.217-8.283 18.5-18.5 18.5-9.8 0-17.82-7.62-18.459-17.258-.014-.208 0-.01 0-.01a.58.58 0 0 1 .587-.616h22.497c.342 0 .423.197.183.435l-5.91 5.903c-.582.581.29 1.452.872.87l7.45-7.403a.607.607 0 0 0 0-.863l-7.45-7.383c-.582-.58-1.454.29-.872.87l5.91 5.904c.242.24.155.435-.183.435H.594z"/>
</svg>
