<svg xmlns="http://www.w3.org/2000/svg" width="37" height="37" viewBox="0 0 37 37">
    <path fill="#6146F5" fill-rule="evenodd" d="M36.372 17.884c.341 0 .606-.28.588-.615 0 0 .013.204 0 0C36.326 7.626 28.304 0 18.5 0 8.282 0 0 8.282 0 18.5 0 28.717 8.282 37 18.5 37c9.8 0 17.82-7.62 18.459-17.258.014-.208 0-.01 0-.01a.58.58 0 0 0-.587-.616H13.875c-.342 0-.423.197-.184.435l5.911 5.903c.581.581-.29 1.452-.872.87l-7.45-7.403a.607.607 0 0 1 0-.863l7.45-7.383c.582-.58 1.453.29.872.87l-5.91 5.904c-.242.24-.156.435.183.435h22.497z"/>
</svg>
