<svg xmlns="http://www.w3.org/2000/svg" width="520" height="314" viewBox="0 0 520 314">
    <defs>
        <linearGradient id="a" x1="29.997%" x2="68.957%" y1="30.651%" y2="67.65%">
            <stop offset=".541%" stop-color="#8CDAFE"/>
            <stop offset="100%" stop-color="#E064F7"/>
        </linearGradient>
        <linearGradient id="b" x1="11.567%" x2="88.431%" y1="58.789%" y2="41.226%">
            <stop offset=".541%" stop-color="#8CDAFE"/>
            <stop offset="100%" stop-color="#E064F7"/>
        </linearGradient>
        <linearGradient id="c" x1="10.949%" x2="89.052%" y1="56.33%" y2="43.682%">
            <stop offset=".541%" stop-color="#8CDAFE"/>
            <stop offset="100%" stop-color="#E064F7"/>
        </linearGradient>
    </defs>
    <g fill="none" fill-rule="nonzero">
        <path fill="url(#a)" d="M584.57 21.569c-19.296-19.3-53.523-22.443-76.007-6.943L47.89 331.884c-22.222 15.282-27.81 45.715-12.53 67.94 15.28 22.225 45.71 27.813 67.931 12.531l1.31-.917c14.058-9.65 33.267-6.113 42.915 7.903 9.648 14.016 6.112 33.272-7.902 42.921L23.791 542.035C.52 558.06-2.185 587.532 17.81 607.53c15.847 22.967 47.28 28.774 70.288 12.968l420.858-289.837c22.964-15.85 28.77-47.287 12.966-70.298-15.847-22.967-47.28-28.774-70.288-12.968l-17.245 11.877c-14.058 9.65-33.267 6.113-42.915-7.903-9.648-14.06-6.112-33.272 7.902-42.921L578.764 84.924c22.528-15.588 25.103-44.056 5.807-63.355z" transform="translate(0 -321)"/>
        <path fill="url(#b)" d="M545.41 89.465L76.66 412.268c-22.222 15.282-52.607 9.693-67.931-12.531-15.28-22.225-9.692-52.615 12.53-67.94L490.009 8.993C512.23-6.29 542.616-.7 557.939 21.524c15.28 22.226 9.693 52.659-12.529 67.941z" transform="translate(26.631 -321)"/>
        <path fill="url(#c)" d="M508.956 92.609L79.63 388.035c-22.964 15.85-54.441 10.042-70.289-12.968C-6.507 352.1-.7 320.619 22.307 304.769L451.634 9.343C474.598-6.507 506.074-.7 521.922 22.31c15.804 23.01 9.998 54.492-12.966 70.298z" transform="translate(0 -83.035)"/>
    </g>
</svg>
