<svg xmlns="http://www.w3.org/2000/svg" width="217" height="162" viewBox="0 0 217 162">
    <defs>
        <linearGradient id="a" x1="29.997%" x2="68.957%" y1="30.651%" y2="67.65%">
            <stop offset=".541%" stop-color="#8CDAFE"/>
            <stop offset="100%" stop-color="#E064F7"/>
        </linearGradient>
        <linearGradient id="b" x1="11.567%" x2="88.431%" y1="58.789%" y2="41.226%">
            <stop offset=".541%" stop-color="#8CDAFE"/>
            <stop offset="100%" stop-color="#E064F7"/>
        </linearGradient>
        <linearGradient id="c" x1="10.949%" x2="89.052%" y1="56.33%" y2="43.682%">
            <stop offset=".541%" stop-color="#8CDAFE"/>
            <stop offset="100%" stop-color="#E064F7"/>
        </linearGradient>
    </defs>
    <g fill="none" fill-rule="nonzero">
        <path fill="url(#a)" d="M296.196 10.936c-9.778-9.785-27.12-11.38-38.513-3.52L24.265 168.27c-11.26 7.748-14.09 23.179-6.348 34.447 7.742 11.268 23.16 14.102 34.42 6.353l.663-.464c7.123-4.893 16.856-3.1 21.745 4.006 4.888 7.107 3.097 16.87-4.004 21.762L12.055 274.82c-11.79 8.125-13.162 23.068-3.031 33.207 8.03 11.645 23.957 14.589 35.614 6.575L257.882 167.65c11.636-8.036 14.578-23.975 6.57-35.642-8.03-11.644-23.956-14.589-35.614-6.575l-8.738 6.022c-7.123 4.892-16.856 3.099-21.744-4.007-4.89-7.129-3.097-16.87 4.003-21.762l90.895-62.628c11.414-7.903 12.719-22.337 2.942-32.122z" transform="translate(-52 -148)"/>
        <path fill="url(#b)" d="M276.353 45.36L38.843 209.026c-11.26 7.748-26.656 4.915-34.42-6.353-7.742-11.269-4.91-26.677 6.349-34.447L248.282 4.56c11.26-7.748 26.656-4.915 34.42 6.353 7.742 11.269 4.91 26.699-6.349 34.447z" transform="translate(-38.506 -148)"/>
        <path fill="url(#c)" d="M257.882 46.954L40.347 196.74c-11.636 8.036-27.585 5.091-35.614-6.575-8.03-11.645-5.088-27.606 6.57-35.643L228.837 4.737c11.635-8.036 27.584-5.092 35.614 6.575 8.008 11.667 5.066 27.628-6.57 35.642z" transform="translate(-52 -27.348)"/>
    </g>
</svg>
