<svg xmlns="http://www.w3.org/2000/svg" width="339" height="385" viewBox="0 0 339 385">
    <defs>
        <linearGradient id="a" x1="8.833%" x2="91.169%" y1="49.636%" y2="50.374%">
            <stop offset=".541%" stop-color="#8CDAFE"/>
            <stop offset="100%" stop-color="#E064F7"/>
        </linearGradient>
        <linearGradient id="b" x1="8.839%" x2="91.175%" y1="49.634%" y2="50.372%">
            <stop offset=".541%" stop-color="#8CDAFE"/>
            <stop offset="100%" stop-color="#E064F7"/>
        </linearGradient>
        <linearGradient id="c" x1="29.997%" x2="68.957%" y1="30.651%" y2="67.65%">
            <stop offset=".541%" stop-color="#8CDAFE"/>
            <stop offset="100%" stop-color="#E064F7"/>
        </linearGradient>
        <linearGradient id="d" x1="10.949%" x2="89.052%" y1="56.33%" y2="43.682%">
            <stop offset=".541%" stop-color="#8CDAFE"/>
            <stop offset="100%" stop-color="#E064F7"/>
        </linearGradient>
        <linearGradient id="e" x1="-.016%" x2="99.992%" y1="49.979%" y2="49.979%">
            <stop offset=".541%" stop-color="#8CDAFE"/>
            <stop offset="100%" stop-color="#E064F7"/>
        </linearGradient>
    </defs>
    <g fill="none" fill-rule="nonzero" opacity=".191" transform="translate(0 -192)">
        <path fill="url(#a)" d="M279.665 68.93L59.519 220.274c-17.164 11.816-40.654 7.487-52.487-9.652-11.834-17.139-7.498-40.594 9.666-52.41L236.844 6.832c17.164-11.817 40.653-7.488 52.487 9.651 11.833 17.175 7.498 40.63-9.666 52.447z" transform="translate(247.102 85.902)"/>
        <path fill="url(#b)" d="M279.558 69.108L59.412 220.45c-17.164 11.817-40.653 7.488-52.487-9.652-11.833-17.139-7.498-40.594 9.666-52.41L236.737 7.046c17.164-11.817 40.653-7.488 52.487 9.651 11.833 17.14 7.498 40.63-9.666 52.411z" transform="translate(0 336.849)"/>
        <path fill="url(#c)" d="M475.51 17.658c-15.693-15.686-43.527-18.24-61.81-5.642L39.075 269.876c-18.07 12.42-22.615 37.156-10.189 55.22 12.426 18.064 37.171 22.606 55.242 10.185l1.065-.745c11.432-7.843 27.053-4.969 34.9 6.423 7.845 11.392 4.97 27.043-6.427 34.886L19.48 440.682c-18.923 13.025-21.124 36.98-4.864 53.233 12.888 18.667 38.45 23.387 57.16 10.54l342.244-235.573c18.674-12.882 23.396-38.434 10.544-57.137-12.887-18.667-38.45-23.387-57.16-10.54l-14.023 9.653c-11.431 7.843-27.053 4.969-34.899-6.423-7.846-11.428-4.97-27.043 6.426-34.886l145.88-100.397c18.32-12.67 20.414-35.808 4.722-51.494z" transform="translate(333.939 82.71)"/>
        <path fill="url(#d)" d="M414.019 75.398L64.887 315.514c-18.675 12.882-44.272 8.162-57.16-10.54-12.887-18.667-8.165-44.254 10.545-57.137L367.404 7.721c18.674-12.882 44.272-8.162 57.159 10.54 12.852 18.703 8.13 44.29-10.544 57.137z" transform="translate(333.939 276.122)"/>
        <ellipse cx="322.746" cy="435.485" fill="url(#e)" rx="35.756" ry="35.758"/>
    </g>
</svg>
