<svg xmlns="http://www.w3.org/2000/svg" width="364" height="291" viewBox="0 0 364 291">
    <defs>
        <linearGradient id="a" x1="31.817%" x2="68.183%" y1="10.034%" y2="77.153%">
            <stop offset=".541%" stop-color="#8CDAFE"/>
            <stop offset="100%" stop-color="#E064F7"/>
        </linearGradient>
        <linearGradient id="b" x1="12.178%" x2="87.825%" y1="61.037%" y2="38.962%">
            <stop offset=".541%" stop-color="#EFC23F"/>
            <stop offset="100%" stop-color="#E064F7"/>
        </linearGradient>
        <linearGradient id="c" x1="9.698%" x2="90.296%" y1="52.391%" y2="47.614%">
            <stop offset=".541%" stop-color="#8CDAFE"/>
            <stop offset="100%" stop-color="#E064F7"/>
        </linearGradient>
        <linearGradient id="d" x1=".004%" x2="100.012%" y1="49.979%" y2="49.979%">
            <stop offset=".541%" stop-color="#8CDAFE"/>
            <stop offset="100%" stop-color="#E064F7"/>
        </linearGradient>
    </defs>
    <g fill="none" fill-rule="nonzero" opacity=".35" transform="rotate(-180 323 145.5)">
        <path fill="url(#a)" d="M640.583 56.309c-9.65-13.984-28.806-17.517-42.804-7.875l-131.224 90.273c-7.245 4.98-17.156 3.156-22.17-4.082-4.985-7.238-3.159-17.14 4.086-22.149l18.113-12.45c13.998-9.64 17.533-28.778 7.883-42.762-9.65-13.984-28.807-17.516-42.804-7.875L223.322 192.703c-13.998 9.642-17.534 28.78-7.883 42.763 9.65 13.984 28.807 17.516 42.804 7.875l47.615-32.745 24.692 35.814.086-.058c-.492 7.036 1.45 14.274 6 20.44 9.94 13.377 28.922 16.04 42.659 6.602L632.672 99.1c13.997-9.64 17.533-28.807 7.911-42.791z"/>
        <path fill="url(#b)" d="M288.073 113.844L35.864 287.951c-10.406 7.188-24.657 4.55-31.826-5.884-7.168-10.434-4.538-24.723 5.868-31.911l252.21-174.107c10.405-7.188 24.656-4.55 31.825 5.884 7.198 10.434 4.567 24.723-5.868 31.911z"/>
        <path fill="url(#c)" d="M265.266 58.883L50.68 206.403c-14.51 9.976-34.379 6.332-44.37-8.182-9.993-14.486-6.344-34.322 8.196-44.297L229.09 6.404c14.51-9.975 34.38-6.332 44.371 8.183 9.963 14.486 6.314 34.321-8.196 44.296z" transform="translate(315 78)"/>
        <circle cx="515" cy="29" r="29" fill="url(#d)"/>
    </g>
</svg>
