<svg xmlns="http://www.w3.org/2000/svg" width="320" height="358" viewBox="0 0 320 358">
    <defs>
        <linearGradient id="a" x1="-.032%" x2="100.007%" y1="49.983%" y2="49.983%">
            <stop offset=".541%" stop-color="#EFC23F"/>
            <stop offset="100%" stop-color="#E064F7"/>
        </linearGradient>
        <linearGradient id="b" x1="12.175%" x2="87.827%" y1="61.032%" y2="38.957%">
            <stop offset=".541%" stop-color="#EFC23F"/>
            <stop offset="100%" stop-color="#E064F7"/>
        </linearGradient>
        <linearGradient id="c" x1="29.997%" x2="68.957%" y1="30.651%" y2="67.65%">
            <stop offset=".541%" stop-color="#8CDAFE"/>
            <stop offset="100%" stop-color="#E064F7"/>
        </linearGradient>
        <linearGradient id="d" x1="11.567%" x2="88.431%" y1="58.789%" y2="41.226%">
            <stop offset=".541%" stop-color="#8CDAFE"/>
            <stop offset="100%" stop-color="#E064F7"/>
        </linearGradient>
        <linearGradient id="e" x1="10.949%" x2="89.052%" y1="56.33%" y2="43.682%">
            <stop offset=".541%" stop-color="#8CDAFE"/>
            <stop offset="100%" stop-color="#E064F7"/>
        </linearGradient>
        <linearGradient id="f" x1="38.325%" x2="66.453%" y1="38.879%" y2="69.429%">
            <stop offset=".541%" stop-color="#E9A33C"/>
            <stop offset="100%" stop-color="#E064F7"/>
        </linearGradient>
        <linearGradient id="g" x1="12.248%" x2="87.744%" y1="61.018%" y2="38.966%">
            <stop offset=".541%" stop-color="#EFC23F"/>
            <stop offset="100%" stop-color="#E064F7"/>
        </linearGradient>
        <linearGradient id="h" x1="11.376%" x2="88.632%" y1="58.075%" y2="41.939%">
            <stop offset=".541%" stop-color="#EFC23F"/>
            <stop offset="100%" stop-color="#E064F7"/>
        </linearGradient>
        <linearGradient id="i" x1="-.048%" x2="99.975%" y1="50.03%" y2="50.03%">
            <stop offset=".541%" stop-color="#8CDAFE"/>
            <stop offset="100%" stop-color="#E064F7"/>
        </linearGradient>
    </defs>
    <g fill="none" fill-rule="nonzero" opacity=".35" transform="translate(-126 -61)">
        <circle cx="324" cy="283" r="14" fill="url(#a)" opacity=".75"/>
        <path fill="url(#b)" d="M561.99 38.23L332.618 197.3c-9.464 6.568-22.424 4.158-28.944-5.375-6.52-9.533-4.128-22.588 5.336-29.155L538.383 3.7c9.464-6.568 22.424-4.158 28.944 5.375 6.52 9.507 4.128 22.588-5.336 29.155z" opacity=".75"/>
        <g opacity=".75">
            <path fill="url(#c)" d="M353.019 13.245c-11.648-11.696-32.31-13.601-45.881-4.207L29.056 201.308c-13.414 9.262-16.788 27.706-7.564 41.175 9.224 13.469 27.592 16.856 41.006 7.594l.79-.556c8.487-5.848 20.082-3.704 25.906 4.79 5.824 8.494 3.69 20.164-4.77 26.012L14.51 328.668c-14.047 9.712-15.68 27.573-3.61 39.693 9.565 13.919 28.54 17.438 42.428 7.859l254.048-175.653c13.862-9.605 17.367-28.658 7.827-42.603-9.567-13.919-28.541-17.438-42.43-7.86l-10.409 7.198c-8.486 5.848-20.081 3.705-25.905-4.79-5.825-8.52-3.69-20.163 4.77-26.011l108.286-74.86c13.598-9.447 15.153-26.7 3.505-38.396z" transform="translate(0 61)"/>
            <path fill="url(#d)" d="M329.38 54.393L46.423 250.024c-13.414 9.262-31.756 5.875-41.006-7.594-9.224-13.47-5.85-31.887 7.563-41.175L295.937 5.624c13.414-9.262 31.756-5.875 41.006 7.594 9.224 13.47 5.85 31.913-7.563 41.175z" transform="translate(16.076 61)"/>
            <path fill="url(#e)" d="M307.375 56.298l-259.16 179.04c-13.862 9.605-32.863 6.086-42.43-7.86-9.566-13.918-6.06-32.997 7.828-42.603l259.16-179.04c13.862-9.605 32.862-6.086 42.429 7.86 9.54 13.945 6.035 33.024-7.827 42.603z" transform="translate(0 205.216)"/>
        </g>
        <g opacity=".75">
            <path fill="url(#f)" d="M273.385 63.39c-5.655-8.428-16.305-11.413-25.317-7.74l-10.861-15.774 21.141-14.557c6.21-4.28 7.796-12.788 3.515-18.997-4.281-6.209-12.79-7.794-19.001-3.514l-125.45 86.343c-6.051 4.174-8.06 12.417-4.175 18.653 4.15 6.658 12.976 8.454 19.371 4.068l17.072-11.757c4.255-2.932 10.069-1.85 12.976 2.405 2.933 4.253 1.85 10.066-2.405 12.972L10.674 218.479c-9.646 6.632-10.756 18.838-2.485 27.108 8.272 8.27 22.94 9.617 32.585 2.985L267.466 92.506c9.487-6.526 12.315-19.551 5.92-29.115z" transform="translate(228 161)"/>
            <path fill="url(#g)" d="M267.862 38.635L33.269 200.09c-9.514 6.552-22.543 4.148-29.096-5.364-6.554-9.511-4.15-22.536 5.364-29.089L244.131 4.182c9.513-6.552 22.542-4.148 29.096 5.364 6.554 9.485 4.149 22.51-5.365 29.089z" transform="translate(228 214.634)"/>
            <path fill="url(#h)" d="M147.619 25.319l-125.767 86.58c-6.21 4.28-14.72 2.721-19-3.514-4.282-6.209-2.723-14.716 3.514-18.997l125.767-86.58c6.21-4.28 14.72-2.721 19 3.514 4.255 6.21 2.696 14.716-3.514 18.997z" transform="translate(338.73 161)"/>
        </g>
        <circle cx="153" cy="144" r="16" fill="url(#i)" opacity=".75"/>
    </g>
</svg>
