<svg xmlns="http://www.w3.org/2000/svg" width="366" height="342" viewBox="0 0 366 342">
    <defs>
        <linearGradient id="a" x1="38.325%" x2="66.453%" y1="38.879%" y2="69.429%">
            <stop offset=".541%" stop-color="#E9A33C"/>
            <stop offset="100%" stop-color="#E064F7"/>
        </linearGradient>
        <linearGradient id="b" x1="12.248%" x2="87.744%" y1="61.018%" y2="38.966%">
            <stop offset=".541%" stop-color="#EFC23F"/>
            <stop offset="100%" stop-color="#E064F7"/>
        </linearGradient>
        <linearGradient id="c" x1="11.376%" x2="88.632%" y1="58.075%" y2="41.939%">
            <stop offset=".541%" stop-color="#EFC23F"/>
            <stop offset="100%" stop-color="#E064F7"/>
        </linearGradient>
    </defs>
    <g fill="none" fill-rule="nonzero" opacity=".3">
        <path fill="url(#a)" d="M360.444 84.358c-7.488-11.153-21.588-15.104-33.519-10.244l-14.38-20.874 27.99-19.265c8.223-5.665 10.322-16.923 4.654-25.14-5.668-8.217-16.934-10.314-25.156-4.65L153.945 118.449c-8.012 5.524-10.67 16.433-5.528 24.685 5.493 8.81 17.18 11.188 25.646 5.384l22.603-15.559c5.633-3.88 13.33-2.447 17.179 3.182 3.883 5.63 2.449 13.321-3.184 17.167L12.629 289.6c-12.77 8.776-14.24 24.93-3.288 35.874 10.95 10.944 30.37 12.727 43.14 3.95L352.607 122.89c12.56-8.636 16.304-25.873 7.837-38.53z"/>
        <path fill="url(#b)" d="M353.985 50.57L43.493 264.233c-12.592 8.67-29.836 5.489-38.51-7.098-8.675-12.587-5.492-29.824 7.1-38.495L322.576 4.98c12.591-8.671 29.835-5.49 38.51 7.097 8.674 12.552 5.49 29.789-7.101 38.495z" transform="translate(0 72)"/>
        <path fill="url(#c)" d="M195.153 33.99L28.436 148.685c-8.232 5.67-19.512 3.605-25.188-4.655-5.675-8.225-3.608-19.495 4.66-25.165L174.624 4.17c8.233-5.67 19.513-3.605 25.188 4.655 5.64 8.225 3.573 19.495-4.66 25.165z" transform="translate(147)"/>
    </g>
</svg>
