<svg xmlns="http://www.w3.org/2000/svg" width="442" height="340" viewBox="0 0 442 340">
    <defs>
        <linearGradient id="a" x1="12.579%" x2="87.822%" y1="60.918%" y2="38.962%">
            <stop offset="0%" stop-color="#EFC23F"/>
            <stop offset="100%" stop-color="#E064F7"/>
        </linearGradient>
        <linearGradient id="b" x1="31.817%" x2="68.183%" y1="10.034%" y2="77.153%">
            <stop offset=".541%" stop-color="#8CDAFE"/>
            <stop offset="100%" stop-color="#E064F7"/>
        </linearGradient>
        <linearGradient id="c" x1="11.164%" x2="88.836%" y1="57.326%" y2="42.674%">
            <stop offset=".541%" stop-color="#8CDAFE"/>
            <stop offset="100%" stop-color="#E064F7"/>
        </linearGradient>
        <linearGradient id="d" x1="9.698%" x2="90.296%" y1="52.391%" y2="47.614%">
            <stop offset=".541%" stop-color="#8CDAFE"/>
            <stop offset="100%" stop-color="#E064F7"/>
        </linearGradient>
        <linearGradient id="e" x1=".004%" x2="100.012%" y1="49.979%" y2="49.979%">
            <stop offset=".541%" stop-color="#8CDAFE"/>
            <stop offset="100%" stop-color="#E064F7"/>
        </linearGradient>
    </defs>
    <g fill="none" fill-rule="nonzero" transform="translate(0 -14)">
        <path fill="url(#a)" d="M99.576 64.455l-87.18 60.146c-3.596 2.483-8.522 1.572-11-2.032-2.478-3.605-1.569-8.541 2.028-11.024l87.18-60.146c3.596-2.483 8.522-1.572 11 2.032 2.478 3.605 1.569 8.541-2.028 11.024z"/>
        <path fill="url(#b)" d="M628.241 18.636C616.201 1.156 592.3-3.26 574.834 8.792L411.106 121.634c-9.04 6.225-21.407 3.945-27.662-5.103-6.22-9.047-3.942-21.425 5.098-27.686l22.6-15.562c17.465-12.051 21.876-35.973 9.835-53.453-12.041-17.48-35.942-21.895-53.407-9.844L107.62 189.13c-17.464 12.052-21.876 35.974-9.835 53.454 12.041 17.48 35.942 21.895 53.407 9.844l59.41-40.932 30.807 44.768.109-.073c-.615 8.795 1.808 17.842 7.485 25.55 12.402 16.72 36.087 20.05 53.226 8.252L618.37 72.125c17.465-12.051 21.876-36.01 9.871-53.49z" transform="rotate(-180 338 177)"/>
        <path fill="url(#c)" d="M414.347 72.664L62.883 313.665c-18.127 12.43-42.947 7.89-55.43-10.196-12.482-18.051-7.923-42.767 10.24-55.197l351.464-241c18.127-12.431 42.947-7.891 55.43 10.195 12.482 18.051 7.887 42.767-10.24 55.197z" transform="rotate(-180 338 177)"/>
        <path fill="url(#d)" d="M331.082 73.033L62.85 257.273c-18.138 12.458-42.973 7.908-55.464-10.22-12.49-18.092-7.928-42.864 10.246-55.322L285.864 7.49c18.138-12.458 42.974-7.908 55.464 10.22 12.454 18.092 7.892 42.864-10.246 55.322z" transform="translate(166.219 .398)"/>
        <circle cx="122" cy="39" r="9" fill="url(#e)"/>
    </g>
</svg>
