<svg xmlns="http://www.w3.org/2000/svg" width="123" height="109" viewBox="0 0 123 109">
    <defs>
        <linearGradient id="a" x1="31.817%" x2="68.183%" y1="10.034%" y2="77.153%">
            <stop offset=".541%" stop-color="#8CDAFE"/>
            <stop offset="100%" stop-color="#E064F7"/>
        </linearGradient>
        <linearGradient id="b" x1="11.164%" x2="88.836%" y1="57.326%" y2="42.674%">
            <stop offset=".541%" stop-color="#8CDAFE"/>
            <stop offset="100%" stop-color="#E064F7"/>
        </linearGradient>
        <linearGradient id="c" x1="9.698%" x2="90.296%" y1="52.391%" y2="47.614%">
            <stop offset=".541%" stop-color="#8CDAFE"/>
            <stop offset="100%" stop-color="#E064F7"/>
        </linearGradient>
    </defs>
    <g fill="none" fill-rule="nonzero">
        <path fill="url(#a)" d="M243.133 7.212c-4.66-6.765-13.91-8.473-20.669-3.81L159.1 47.074c-3.498 2.41-8.284 1.527-10.705-1.975-2.407-3.501-1.525-8.291 1.973-10.714l8.746-6.023c6.76-4.664 8.466-13.922 3.806-20.687-4.66-6.765-13.91-8.473-20.668-3.81L41.65 73.195c-6.759 4.664-8.466 13.922-3.806 20.687 4.66 6.765 13.91 8.473 20.669 3.81L81.504 81.85l11.923 17.325.042-.028c-.238 3.404.7 6.905 2.897 9.888 4.8 6.471 13.966 7.76 20.599 3.194l122.348-84.316c6.759-4.664 8.466-13.936 3.82-20.7z" transform="rotate(-180 123 54.5)"/>
        <path fill="url(#b)" d="M160.355 28.122L24.336 121.39c-7.015 4.81-16.62 3.054-21.451-3.946-4.831-6.986-3.067-16.55 3.962-21.361l136.019-93.27c7.015-4.81 16.62-3.053 21.451 3.947 4.831 6.986 3.053 16.551-3.962 21.362z" transform="rotate(-180 123 54.5)"/>
        <path fill="url(#c)" d="M128.13 28.264L24.324 99.566c-7.02 4.821-16.63 3.06-21.464-3.955C-1.975 88.609-.21 79.022 6.824 74.2L110.63 2.899c7.02-4.821 16.631-3.06 21.465 3.955 4.82 7.002 3.054 16.589-3.965 21.41z" transform="translate(48.712 -27.846)"/>
    </g>
</svg>
