<svg xmlns="http://www.w3.org/2000/svg" width="719" height="711" viewBox="0 0 719 711">
    <defs>
        <linearGradient id="a" x1="-.032%" x2="100.007%" y1="49.983%" y2="49.983%">
            <stop offset=".541%" stop-color="#EFC23F"/>
            <stop offset="100%" stop-color="#E064F7"/>
        </linearGradient>
        <linearGradient id="b" x1="12.175%" x2="87.827%" y1="61.032%" y2="38.957%">
            <stop offset=".541%" stop-color="#EFC23F"/>
            <stop offset="100%" stop-color="#E064F7"/>
        </linearGradient>
        <linearGradient id="c" x1="29.997%" x2="68.957%" y1="30.651%" y2="67.65%">
            <stop offset=".541%" stop-color="#8CDAFE"/>
            <stop offset="100%" stop-color="#E064F7"/>
        </linearGradient>
        <linearGradient id="d" x1="11.567%" x2="88.431%" y1="58.789%" y2="41.226%">
            <stop offset=".541%" stop-color="#8CDAFE"/>
            <stop offset="100%" stop-color="#E064F7"/>
        </linearGradient>
        <linearGradient id="e" x1="10.949%" x2="89.052%" y1="56.33%" y2="43.682%">
            <stop offset=".541%" stop-color="#8CDAFE"/>
            <stop offset="100%" stop-color="#E064F7"/>
        </linearGradient>
        <linearGradient id="f" x1="38.325%" x2="66.453%" y1="38.879%" y2="69.429%">
            <stop offset=".541%" stop-color="#E9A33C"/>
            <stop offset="100%" stop-color="#E064F7"/>
        </linearGradient>
        <linearGradient id="g" x1="12.248%" x2="87.744%" y1="61.018%" y2="38.966%">
            <stop offset=".541%" stop-color="#EFC23F"/>
            <stop offset="100%" stop-color="#E064F7"/>
        </linearGradient>
        <linearGradient id="h" x1="11.376%" x2="88.632%" y1="58.075%" y2="41.939%">
            <stop offset=".541%" stop-color="#EFC23F"/>
            <stop offset="100%" stop-color="#E064F7"/>
        </linearGradient>
        <linearGradient id="i" x1="-.048%" x2="99.975%" y1="50.03%" y2="50.03%">
            <stop offset=".541%" stop-color="#8CDAFE"/>
            <stop offset="100%" stop-color="#E064F7"/>
        </linearGradient>
    </defs>
    <g fill="none" fill-rule="nonzero" opacity=".35" transform="translate(-251)">
        <circle cx="550" cy="481" r="24" fill="url(#a)" opacity=".75"/>
        <path fill="url(#b)" d="M954.674 64.859L564.485 334.724c-16.1 11.141-38.146 7.053-49.237-9.12-11.091-16.173-7.021-38.321 9.078-49.463L914.515 6.276c16.1-11.141 38.146-7.053 49.237 9.12 11.091 16.128 7.021 38.321-9.078 49.463z" opacity=".75"/>
        <g opacity=".75">
            <path fill="url(#c)" d="M599.448 22.5c-19.78-19.869-54.863-23.105-77.91-7.148l-472.2 326.61c-22.777 15.733-28.505 47.064-12.843 69.943 15.663 22.88 46.853 28.634 69.63 12.901l1.343-.944c14.41-9.934 34.1-6.293 43.99 8.136 9.89 14.43 6.264 34.252-8.1 44.187L24.636 558.309c-23.851 16.497-26.626 46.839-6.13 67.426 16.244 23.644 48.464 29.622 72.047 13.35L521.94 340.704c23.539-16.317 29.49-48.682 13.29-72.37-16.243-23.644-48.463-29.623-72.046-13.35l-17.677 12.226c-14.409 9.934-34.099 6.293-43.989-8.136-9.89-14.474-6.265-34.253 8.1-44.187L593.496 87.722c23.091-16.047 25.731-45.355 5.952-65.223z" transform="translate(0 104)"/>
            <path fill="url(#d)" d="M559.307 92.397L78.828 424.717c-22.777 15.732-53.923 9.978-69.63-12.902-15.663-22.88-9.935-54.165 12.843-69.943L502.52 9.553c22.777-15.732 53.923-9.979 69.63 12.901 15.663 22.88 9.935 54.21-12.843 69.943z" transform="translate(27.297 104)"/>
            <path fill="url(#e)" d="M521.941 95.634L81.871 399.769c-23.538 16.317-55.803 10.338-72.047-13.35-16.244-23.645-10.292-56.054 13.29-72.37L463.185 9.912c23.539-16.317 55.804-10.339 72.048 13.35 16.2 23.69 10.248 56.099-13.29 72.37z" transform="translate(0 348.98)"/>
        </g>
        <g opacity=".75">
            <path fill="url(#f)" d="M463.867 107.862c-9.596-14.34-27.667-19.42-42.957-13.172l-18.43-26.838 35.873-24.771c10.537-7.283 13.228-21.759 5.963-32.323-7.264-10.565-21.702-13.262-32.24-5.98L199.22 151.694c-10.268 7.103-13.676 21.13-7.085 31.74 7.04 11.328 22.017 14.385 32.868 6.923l28.967-20.006c7.22-4.99 17.084-3.147 22.016 4.091 4.978 7.238 3.14 17.128-4.08 22.073L18.11 371.754c-16.367 11.284-18.25 32.053-4.215 46.124 14.035 14.072 38.92 16.364 55.287 5.08l384.64-265.554c16.097-11.104 20.895-33.268 10.044-49.542z" transform="translate(387 273)"/>
            <path fill="url(#g)" d="M454.495 65.739L56.45 340.464c-16.143 11.15-38.249 7.058-49.37-9.126-11.12-16.184-7.04-38.347 9.103-49.496L414.23 7.116c16.142-11.149 38.248-7.058 49.369 9.126 11.12 16.14 7.04 38.303-9.103 49.497z" transform="translate(387 364.26)"/>
            <path fill="url(#h)" d="M250.472 43.08L37.078 190.402c-10.538 7.283-24.976 4.63-32.24-5.979-7.264-10.564-4.619-25.04 5.964-32.323L224.196 4.779c10.537-7.283 24.976-4.631 32.24 5.979 7.22 10.564 4.574 25.04-5.964 32.323z" transform="translate(574.88 273)"/>
        </g>
        <circle cx="259.5" cy="245.5" r="27.5" fill="url(#i)" opacity=".75"/>
    </g>
</svg>
