<svg xmlns="http://www.w3.org/2000/svg" xmlns:xlink="http://www.w3.org/1999/xlink" width="255" height="220" viewBox="0 0 255 220">
    <defs>
        <linearGradient id="a" x1="9.285%" x2="91.176%" y1="49.632%" y2="50.366%">
            <stop offset="0%" stop-color="#8CDAFE"/>
            <stop offset="100%" stop-color="#E064F7"/>
        </linearGradient>
        <linearGradient id="b" x1="12.579%" x2="87.822%" y1="60.918%" y2="38.962%">
            <stop offset="0%" stop-color="#EFC23F"/>
            <stop offset="100%" stop-color="#E064F7"/>
        </linearGradient>
        <path id="c" d="M0 .284H53.01v88.118H0z"/>
        <linearGradient id="e" x1="-.007%" y1="49.999%" y2="49.999%">
            <stop offset=".541%" stop-color="#8CDAFE"/>
            <stop offset="100%" stop-color="#E064F7"/>
        </linearGradient>
        <linearGradient id="f" x1="-.012%" x2="99.98%" y1="49.986%" y2="49.986%">
            <stop offset=".541%" stop-color="#EFC23F"/>
            <stop offset="100%" stop-color="#E064F7"/>
        </linearGradient>
    </defs>
    <g fill="none" fill-rule="evenodd">
        <path fill="url(#a)" d="M53.486 184.256c-31.35-58.195-56.024-142.32 0-152.251 56.024-9.932 152.21 55.758 180.584 108.429 13.145 24.4-40.321 1.872-103.23 13.025-37.017 6.562-67.184 49.674-77.354 30.797z" transform="rotate(-2 128.083 110)"/>
        <path fill="url(#b)" d="M53.486 184.256c-31.35-58.195-56.024-142.32 0-152.251 56.024-9.932 152.21 55.758 180.584 108.429 13.145 24.4-40.321 1.872-103.23 13.025-37.017 6.562-67.184 49.674-77.354 30.797z" opacity=".95" transform="rotate(-19 128.083 110)"/>
        <g transform="rotate(30 -54.27 244.688)">
            <mask id="d" fill="#fff">
                <use xlink:href="#c"/>
            </mask>
            <path fill="#FFF" d="M49.651 68.591h-9.03c-2.961-17.593 1.997-27.59 4.515-31.336C47.656 41 52.615 50.996 49.65 68.59zm-8.664 4.438h8.64v-1.988h-8.64v1.988zm2.194 4.603h4.307V75.48H43.18v2.152zm-5.358-11.218l-4.865-1.919V45.311l5.077 3.958c-.945 5.251-1.016 11.015-.212 17.145zm-3.387 6.615H18.577v-5.315l2.936-1.157h9.984l2.94 1.158v5.314zm-3.581 7.375h3.581V75.48h-3.581v4.923zm-6.933-2.681h4.48v-2.24h-4.48v2.24zm0 3.897h4.48v-1.446h-4.48v1.446zm0 4.329h4.48v-1.876h-4.48v1.876zm-5.345-5.545h2.893V75.48h-2.893v4.923zm-3.388-13.99c.803-6.129.732-11.894-.211-17.145l5.077-3.959v19.185l-4.866 1.92zm1.701-21.746a83.218 83.218 0 0 1-.801-6.177h20.609a83.836 83.836 0 0 1-.775 6.024l-5.419-4.223v23.81h-7.997v-23.81l-5.617 4.376zm2.92-32.256h13.165c2.58 5.406 3.93 11.84 4.012 19.128h-2.738v2.45h2.716c-.02.692-.048 1.38-.087 2.05H15.906c-.04-.683-.068-1.37-.086-2.05h1.696v-2.45H15.8c.082-7.288 1.431-13.723 4.01-19.128zM26.394 3.4c1.182 1.023 3.278 3.123 5.286 6.559H21.106c2.008-3.435 4.104-5.536 5.288-6.56zM12.392 68.59H3.358c-2.96-17.594 2-27.59 4.517-31.335C10.393 41.004 15.352 51 12.392 68.59zM3.556 73.03h8.64v-1.988h-8.64v1.988zm2.192 4.603h4.306V75.48H5.748v2.152zm40.331-43.22l-.943-1.141-.945 1.142c-.88 1.065-3.85 5.05-5.597 12.183l-.484-.378C43.695 15.185 29.95 2.98 27.133.845l-.74-.561-.74.561C22.828 2.987 9.046 15.24 14.705 46.373l-.287.223c-1.748-7.133-4.716-11.118-5.597-12.182l-.944-1.143-.948 1.142C5.25 36.445-2.926 47.71 1.104 69.898v5.582h2.193v4.602h9.21V75.48h2.138l-.004-5.537c.032-.177.06-.35.089-.522l.034-.203 1.36-.538v14.175h5.345v5.547h9.384v-5.547h6.034V68.68l1.36.538.038.223c.032.196.063.393.1.594l.146.8.005 4.644h2.193v4.602h9.21V75.48h2.14v-5.915h-.108c3.874-21.987-4.222-33.134-5.892-35.152z" mask="url(#d)"/>
        </g>
        <path fill="#FFF" d="M120.394 102.939l4.13 2.384 1.226-2.123-4.13-2.384zM128.307 95.085a2.567 2.567 0 0 1-2.081-.212 2.586 2.586 0 0 1-.946-3.53 2.586 2.586 0 0 1 3.53-.945 2.567 2.567 0 0 1 1.223 1.696l2.428 1.401c.348-2.02-.55-4.137-2.426-5.22a5.042 5.042 0 0 0-6.879 1.843 5.042 5.042 0 0 0 1.843 6.88c1.878 1.083 4.16.802 5.735-.512l-2.427-1.401z"/>
        <circle cx="85.388" cy="14.064" r="10.046" fill="url(#e)" fill-rule="nonzero"/>
        <circle cx="149.178" cy="166.256" r="6.53" fill="url(#f)" fill-rule="nonzero"/>
    </g>
</svg>
