<svg xmlns="http://www.w3.org/2000/svg" width="33" height="30" viewBox="0 0 33 30">
    <g fill="#7760F6" fill-rule="evenodd">
        <path d="M31.624 0H21.245c-.053 0-.1.023-.15.03A.998.998 0 0 0 20.002.7l-8.433 25.137-3.571-11.402a1 1 0 0 0-1.03-.697c-.035-.004-.065-.02-.1-.02h-5.85c-.562 0-1.018.46-1.018 1.027 0 .568.456 1.028 1.018 1.028h5.268l4.223 13.49c.142.457.572.724 1.023.7.448.026.877-.228 1.028-.679l9.135-27.227h9.929c.564 0 1.017-.46 1.017-1.028 0-.568-.453-1.026-1.017-1.028"/>
        <path d="M25.572 23.062l4.288-4.91a1.03 1.03 0 0 0-.088-1.45 1.01 1.01 0 0 0-1.439.093l-4.116 4.715-4.12-4.715a1.01 1.01 0 0 0-1.438-.093 1.033 1.033 0 0 0-.087 1.452l4.287 4.908-4.287 4.907a1.031 1.031 0 0 0 .091 1.45c.421.377 1.06.334 1.435-.091l4.117-4.712 4.116 4.712a1.007 1.007 0 0 0 1.435.09 1.031 1.031 0 0 0 .092-1.449l-4.286-4.907z"/>
    </g>
</svg>
