<svg xmlns="http://www.w3.org/2000/svg" xmlns:xlink="http://www.w3.org/1999/xlink" width="33" height="33" viewBox="0 0 33 33">
    <defs>
        <path id="a" d="M0 0h33v33H0z"/>
    </defs>
    <g fill="none" fill-rule="evenodd">
        <mask id="b" fill="#fff">
            <use xlink:href="#a"/>
        </mask>
        <path fill="#7760F6" d="M32.934 28.99a.862.862 0 0 0-.19-.947l-3.472-3.472a.87.87 0 0 0-1.228 1.228l1.99 1.99h-9.192v-.868a.868.868 0 1 0-1.737 0v.868h-3.474v-.868a.868.868 0 1 0-1.736 0v.868H10.42v-.868a.868.868 0 1 0-1.737 0v.868H5.21v-3.474h.869a.868.868 0 1 0 0-1.736H5.21v-3.474h.869a.868.868 0 1 0 0-1.737H5.21v-3.474h.869a.868.868 0 1 0 0-1.737H5.21V2.964l1.993 1.992a.871.871 0 0 0 1.228 0 .87.87 0 0 0 0-1.228L4.959.254a.874.874 0 0 0-.947-.188.874.874 0 0 0-.285.188L.255 3.728a.87.87 0 0 0 1.228 1.228l1.99-1.992v9.193h-.868a.869.869 0 0 0 0 1.737h.869v3.474h-.869a.869.869 0 0 0 0 1.737h.869v3.474h-.869a.869.869 0 0 0 0 1.736h.869v3.474H.868a.869.869 0 0 0 0 1.737h2.606v2.606a.869.869 0 0 0 1.736 0v-2.606h3.474v.869a.869.869 0 0 0 1.737 0v-.869h3.474v.869a.869.869 0 0 0 1.736 0v-.869h3.474v.869a.869.869 0 0 0 1.737 0v-.869h9.193l-1.99 1.992a.87.87 0 0 0 1.227 1.228l3.472-3.473a.828.828 0 0 0 .19-.284" mask="url(#b)"/>
    </g>
</svg>
