<svg xmlns="http://www.w3.org/2000/svg" xmlns:xlink="http://www.w3.org/1999/xlink" width="24" height="20" viewBox="0 0 24 20">
    <defs>
        <path id="a" d="M0 19.793h23.328V0H0z"/>
    </defs>
    <g fill="none" fill-rule="evenodd">
        <path fill="#6146F5" d="M18.743 16.058a.729.729 0 0 0-.976-.22l-.05.034-.089.075a8.44 8.44 0 0 1-4.675 2.375 8.438 8.438 0 0 1-5.231-.871 8.559 8.559 0 0 1-2.615-2.143 8.418 8.418 0 0 1-1.847-4.41l.485.485a.73.73 0 0 0 .756.152.733.733 0 0 0 .456-.81.733.733 0 0 0-.2-.382L2.988 8.576a.714.714 0 0 0-.45-.202l-.033-.002-.076.002a.722.722 0 0 0-.46.21L.206 10.351a.73.73 0 0 0-.14.803.731.731 0 0 0 .833.407.725.725 0 0 0 .3-.154l.596-.592a9.853 9.853 0 0 0 2.077 5.27 10.03 10.03 0 0 0 3.015 2.564 9.825 9.825 0 0 0 4.765 1.225 9.902 9.902 0 0 0 6.872-2.77l.156-.157a.728.728 0 0 0 .064-.89M22.913 8.374a.724.724 0 0 0-.205-.07c-.032-.007-.045-.008-.078-.01l-.033-.002a.7.7 0 0 0-.055 0l-.028.002c-.026.002-.039.003-.069.01a.714.714 0 0 0-.358.177l-.595.594a9.854 9.854 0 0 0-1.495-4.46A9.932 9.932 0 0 0 15.03.6a9.842 9.842 0 0 0-3.525-.6 9.92 9.92 0 0 0-5.417 1.696A9.881 9.881 0 0 0 4.762 2.77l-.157.157a.725.725 0 0 0 .965 1.072l.086-.072a8.449 8.449 0 0 1 9.907-1.504 8.564 8.564 0 0 1 2.614 2.143 8.405 8.405 0 0 1 1.845 4.39l-.46-.461a.734.734 0 0 0-.801-.14.733.733 0 0 0-.396.878.726.726 0 0 0 .18.297l1.765 1.765a.728.728 0 0 0 1.02-.006l1.771-1.772a.73.73 0 0 0 .2-.5.734.734 0 0 0-.388-.643"/>
        <mask id="b" fill="#fff">
            <use xlink:href="#a"/>
        </mask>
        <path fill="#6146F5" d="M7.442 13.115h8.605V6.512H7.442v6.603zM6.047 14.51h11.395V5.116H6.047v9.394z" mask="url(#b)"/>
    </g>
</svg>
