<svg xmlns="http://www.w3.org/2000/svg" width="40" height="40" viewBox="0 0 40 40">
    <g fill="none" fill-rule="evenodd">
        <path fill="#B9ACFF" d="M19.997 0c11.045 0 19.998 8.953 19.998 19.997 0 11.045-8.953 19.998-19.998 19.998C8.953 39.995 0 31.042 0 19.997 0 8.953 8.953 0 19.997 0"/>
        <path fill="#C8BEFF" d="M35.005 19.592c.001 5.087-4.111 9.211-9.188 9.212-5.075.002-9.191-4.12-9.193-9.207v-.005c-.001-5.086 4.113-9.211 9.188-9.212 5.076-.002 9.192 4.12 9.193 9.208v.004"/>
        <path fill="#ADA0F0" d="M13.432 10.38c-5.046.032-9.132 4.146-9.132 9.21 0 5.085 4.117 9.21 9.19 9.21 2.38 0 4.551-.91 6.184-2.4h.001c.335-.305.647-.635.934-.987h-1.883a8.84 8.84 0 0 1-.685-.948h3.247c.198-.316.376-.646.536-.986h-4.319a9.04 9.04 0 0 1-.384-.967h5.087a9.289 9.289 0 0 0 .261-4.894h-5.618c.07-.327.158-.651.262-.968h5.09a9.243 9.243 0 0 0-.397-.986h-4.301c.155-.332.33-.655.527-.967h3.245a9.32 9.32 0 0 0-.713-.987h-1.81c.28-.33.588-.64.922-.93a9.141 9.141 0 0 0-6.185-2.4h-.06"/>
        <path fill="#FFF" d="M16.787 21.954l.123-.834c-.067 0-.165.029-.252.029-.34 0-.379-.181-.356-.316l.275-1.7h.517l.125-.923h-.488l.1-.573h-.979c-.021.022-.578 3.225-.578 3.614 0 .578.323.835.78.831.357-.003.635-.102.733-.128M18.847 19.021c.552 0 .45.622.45.672h-1.086c0-.064.102-.672.636-.672m-1.716 1.385c0 1.386.912 1.716 1.69 1.716.718 0 1.033-.161 1.033-.161l.173-.946s-.546.242-1.04.242c-1.05 0-.866-.785-.866-.785h1.99s.127-.636.127-.895c0-.646-.321-1.434-1.395-1.434-.984 0-1.712 1.063-1.712 2.263M25.064 21.939l.175-1.07s-.48.242-.81.242c-.693 0-.971-.532-.971-1.102 0-1.158.597-1.795 1.262-1.795.498 0 .899.28.899.28l.16-1.038s-.594-.24-1.102-.24c-1.13 0-2.23.98-2.23 2.826 0 1.222.594 2.03 1.762 2.03.33.001.855-.133.855-.133M11.648 20.342c.019.165-.103.939-.692.939-.304 0-.383-.233-.383-.371 0-.268.145-.59.863-.59.166 0 .184.018.212.022m-.21-2.199c-.67 0-1.185.216-1.185.216l-.142.845s.425-.172 1.067-.172c.364 0 .63.04.63.338 0 .18-.032.246-.032.246s-.287-.024-.42-.024c-.847 0-1.736.362-1.736 1.454 0 .86.583 1.057.945 1.057.69 0 .987-.449 1.004-.45l-.033.374h.862l.384-2.701c0-1.146-.997-1.183-1.344-1.183M13.672 22.076c.22 0 1.48.056 1.48-1.246 0-1.219-1.166-.978-1.166-1.468 0-.243.19-.32.537-.32.138 0 .669.044.669.044l.124-.866s-.344-.077-.903-.077c-.724 0-1.459.29-1.459 1.28 0 1.124 1.225 1.01 1.225 1.483 0 .316-.342.342-.606.342-.456 0-.867-.157-.869-.15l-.13.857c.023.008.276.12 1.098.12M32.64 19.946c0 .518-.256 1.209-.786 1.209-.352 0-.517-.297-.517-.761 0-.76.34-1.263.77-1.263.353 0 .534.243.534.815zm.455-2.56l-.21 1.312s-.37-.509-.946-.509c-.897 0-1.644 1.083-1.644 2.328 0 .804.399 1.59 1.214 1.59.586 0 .91-.41.91-.41l-.042.35h.952l.748-4.663-.982.002zM6.09 22.052l.597-3.52.087 3.52h.674l1.258-3.52-.557 3.52H9.15l.772-4.668h-1.55l-.964 2.864-.05-2.864H5.93l-.782 4.668zM21.174 21.994c.284-1.623.337-2.941 1.017-2.7.12-.629.234-.871.363-1.138 0 0-.06-.013-.188-.013-.438 0-.763.6-.763.6l.087-.55h-.912l-.61 3.8h1.006zM27.514 20.342c.018.165-.103.939-.693.939-.304 0-.383-.233-.383-.371 0-.268.146-.59.862-.59.168 0 .185.018.214.022m-.21-2.199c-.672 0-1.186.216-1.186.216l-.141.845s.424-.172 1.066-.172c.364 0 .63.04.63.338 0 .18-.032.246-.032.246s-.287-.024-.421-.024c-.847 0-1.735.362-1.735 1.454 0 .86.583 1.057.945 1.057.69 0 .987-.449 1.003-.45l-.032.374h.862l.385-2.701c0-1.146-.997-1.183-1.345-1.183M29.443 21.994c.286-1.623.338-2.941 1.018-2.7.12-.629.234-.871.364-1.138 0 0-.061-.013-.189-.013-.438 0-.762.6-.762.6l.087-.55h-.912l-.61 3.8h1.005z"/>
    </g>
</svg>
