<svg xmlns="http://www.w3.org/2000/svg" width="1113" height="162" viewBox="0 0 1113 162">
    <defs>
        <linearGradient id="a" x1="-.007%" y1="49.999%" y2="49.999%">
            <stop offset=".541%" stop-color="#8CDAFE"/>
            <stop offset="100%" stop-color="#E064F7"/>
        </linearGradient>
        <linearGradient id="b" x1=".034%" x2="100.026%" y1="50%" y2="50%">
            <stop offset=".541%" stop-color="#EFC23F"/>
            <stop offset="100%" stop-color="#E064F7"/>
        </linearGradient>
    </defs>
    <g fill="none" fill-rule="evenodd" transform="translate(1 1)">
        <g stroke="#FFF" stroke-width="3">
            <path d="M0 87.007l48.281-25.393a13 13 0 0 1 13.29.707l22.406 15.02a53.785 53.785 0 0 0 58.331 1.009l11.018-6.846a53 53 0 0 1 45.805-4.89l61.581 22.005a76 76 0 0 0 45.626 1.738l58.26-15.936a73 73 0 0 1 65.706 14.094l13.148 10.844c21.84 18.01 52.122 21.771 77.703 9.65l86.222-40.854a60 60 0 0 1 48.116-1.43l64.584 26.023a72 72 0 0 0 60.088-2.882l30.512-15.843a100 100 0 0 1 69.12-8.56l74.5 17.638c18.977 4.492 38.667-3.898 48.571-20.697 9.173-15.559 29.221-20.736 44.78-11.564l.08.048 4.533 2.69c14.7 8.722 33.686 3.876 42.408-10.822a30.948 30.948 0 0 0 2.663-5.766L1110 0" opacity=".163"/>
            <path d="M0 74l137.145 46.426a72 72 0 0 0 45.756.14l85.274-28.288a24 24 0 0 1 17.273.833l88.694 39.267a64 64 0 0 0 45.223 2.495l100.243-31.731a49 49 0 0 1 38.99 4.11l74.05 42.066a74 74 0 0 0 66.4 3.37l88.818-39.152a75 75 0 0 1 59.628-.38l71.56 30.463a56 56 0 0 0 57.114-7.954l6.332-5.113a71.41 71.41 0 0 1 71.302-10.773L1110 142.18" opacity=".133"/>
        </g>
        <circle cx="379" cy="134" r="7" fill="url(#a)" fill-rule="nonzero"/>
        <circle cx="1069.5" cy="58.5" r="7.5" fill="url(#b)" fill-rule="nonzero"/>
    </g>
</svg>
