<svg xmlns="http://www.w3.org/2000/svg" width="40" height="40" viewBox="0 0 40 40">
    <g fill="none" fill-rule="evenodd">
        <path fill="#C8BEFF" d="M19.997 0c11.045 0 19.998 8.953 19.998 19.997 0 11.045-8.953 19.998-19.998 19.998C8.953 39.995 0 31.042 0 19.997 0 8.953 8.953 0 19.997 0"/>
        <path fill="#FFF" d="M14.852 23.804l1.53-9.036h2.478l-1.53 9.036zM26.17 14.978a6.434 6.434 0 0 0-2.221-.379c-2.448 0-4.173 1.226-4.188 2.982-.014 1.298 1.231 2.022 2.171 2.455.965.442 1.29.726 1.284 1.12-.006.606-.77.883-1.482.883-.992 0-1.519-.137-2.333-.474l-.319-.144-.348 2.023c.579.252 1.65.47 2.76.482 2.605 0 4.296-1.211 4.315-3.087.01-1.028-.651-1.81-2.08-2.455-.867-.418-1.397-.697-1.391-1.12 0-.376.449-.777 1.419-.777a4.594 4.594 0 0 1 1.854.346l.222.104.337-1.959zM29.23 20.611l.987-2.525c-.015.024.203-.523.328-.862l.168.779.573 2.609H29.23zm1.126-5.843c-.594 0-1.023.181-1.284.77l-3.671 8.266h2.623l.51-1.385h3.134l.29 1.385h2.333l-2.04-9.036h-1.895zM10.313 20.962l-.218-1.239c-.453-1.444-1.856-3.006-3.428-3.789l2.189 7.87h2.623l3.935-9.036H12.79l-2.478 6.194z"/>
        <path fill="#E2DEFA" d="M3.966 14.768v.146c3.109.748 5.267 2.638 6.122 4.81l-.899-4.185c-.15-.572-.604-.751-1.142-.771h-4.08z"/>
        <path fill="#B9ACFF" d="M20.023 39.977c7.718 0 14.41-4.375 17.744-10.779H2.278c3.334 6.404 10.026 10.779 17.745 10.779M20.035 0C12.44 0 5.832 4.235 2.447 10.473h35.177C34.238 4.235 27.63 0 20.035 0"/>
    </g>
</svg>
