<svg xmlns="http://www.w3.org/2000/svg" width="40" height="40" viewBox="0 0 40 40">
    <g fill="none" fill-rule="evenodd">
        <path fill="#003A76" d="M19.997 0c11.045 0 19.998 8.953 19.998 19.997 0 11.045-8.953 19.998-19.998 19.998C8.953 39.995 0 31.042 0 19.997 0 8.953 8.953 0 19.997 0"/>
        <path fill="#B9ACFF" d="M17.002.253C7.38 1.7 0 10 0 20.027c0 6.84 3.436 12.875 8.674 16.48L16.822.737c.038-.166.1-.327.18-.483"/>
        <path fill="#C8BEFF" d="M16.936.224a2.04 2.04 0 0 0-.18.483L8.608 36.48a19.875 19.875 0 0 0 9.327 3.418l8.814-38.703A19.96 19.96 0 0 0 19.932 0c-1.018 0-2.018.078-2.996.224"/>
        <path fill="#B9ACFF" d="M19.972 39.984c11.045 0 19.998-8.954 19.998-19.998 0-8.65-5.493-16.017-13.18-18.805l-8.815 38.703c.656.066 1.322.1 1.997.1"/>
        <path fill="#FFF" d="M22.06 24.72h.938l-.018.405h.25c.126 0 .188-.04.188-.12l.074-.262h.78l-.105.382c-.087.32-.321.485-.7.502h-.5l-.001.693c-.01.111.09.168.297.168h.47l-.152.549h-1.125c-.315.014-.47-.136-.467-.455l.072-1.862zm1.097-.814c.12.017.187-.031.195-.143l.1-.358h-1.626l-.136.501h1.467zm.588-1.576h-1.623l-.194.68s.27-.196.722-.203c.45-.007.965 0 .965 0l.13-.477zm-1.54-.712l-.045.392s.542-.407 1.034-.407h1.819l-.696 2.518c-.058.288-.305.43-.742.43h-2.061l-.483 1.77c-.028.094.012.142.115.142h.406l-.15.549h-1.03c-.396 0-.56-.12-.496-.358l1.365-5.036h.964zm-4.586 1.643h2.874l-.183.67h-1.156l-.176.646h1.125l-.184.668h-1.124l-.261.955c-.065.16.02.231.254.215h.915l-.17.622h-1.758c-.334 0-.448-.191-.343-.574l.333-1.217h-.719l.183-.669h.719l.176-.646h-.687l.182-.67zm.18-.882h.157c.145 0 .242-.049.287-.144l.409-.612h1.094l-.229.402h1.311l-.166.616h-1.56c-.18.27-.401.398-.667.383h-.812l.176-.645zM29.376 22.989h3.346l-.197.693H31.46l-.182.645h1.064l-.198.692H30.96l-.269.405h.58l.135.812c.016.081.087.12.21.12h.18l-.19.67h-.637c-.331.016-.502-.095-.516-.335l-.153-.742-.528.79a.572.572 0 0 1-.576.31h-.974l.19-.669h.303c.125 0 .23-.055.323-.167l.826-1.195h-1.066l.198-.692h1.155l.184-.645h-1.156l.198-.692zm.302-1.386h1.033l.044.381c-.007.097.05.144.173.144h.183l-.185.646h-.76c-.289.015-.438-.096-.452-.336l-.036-.835zm-2.657 4.42l.21-.742h-.82l-.212.742h.822zm-.206-2.173l-.28 1.022s.53-.26.893-.283c.105-.395.21-.74.21-.74h-.823zm.409-1.434l-.28.976s.479-.184.891-.235c.091-.341.21-.741.21-.741h-.821zm-1.186 0l.218-.765h1.098l-.047.28s.561-.28.966-.28h1.36l-.217.765h-.214l-1.025 3.607h.214l-.203.717h-.214l-.09.31h-1.063l.089-.31h-2.1l.205-.717h.21l1.026-3.607h-.213zM10.684 18.273c-.127.623-.422 1.101-.878 1.441-.454.335-1.038.502-1.753.502-.673 0-1.166-.171-1.481-.514-.218-.244-.327-.554-.327-.928 0-.155.018-.322.055-.5l.763-3.675h1.15l-.751 3.633a1.176 1.176 0 0 0-.031.279.715.715 0 0 0 .138.458c.137.176.358.264.666.264.354 0 .646-.087.872-.261.227-.174.374-.42.44-.74l.755-3.633h1.145l-.763 3.674M11.711 16.792h.813l-.093.474.117-.135c.263-.282.583-.422.961-.422.342 0 .589.099.744.3.152.2.193.476.122.83l-.448 2.235h-.836l.404-2.026c.042-.209.03-.365-.034-.465-.063-.1-.185-.151-.36-.151a.783.783 0 0 0-.543.2.995.995 0 0 0-.294.557l-.372 1.885h-.837l.656-3.282M21.077 16.792h.814l-.093.474.116-.135c.264-.282.585-.422.961-.422.342 0 .59.099.743.3.152.2.196.476.122.83l-.446 2.235h-.837l.405-2.026c.042-.209.03-.365-.033-.465-.066-.1-.185-.151-.36-.151a.789.789 0 0 0-.544.2.982.982 0 0 0-.293.557l-.374 1.885h-.836l.655-3.282M15.756 15.612h.91l-.17.796h-.91l.17-.796zm-.284 1.194h.902l-.706 3.28h-.9l.704-3.28zM18.951 19.175c.16-.173.272-.434.342-.782a1.918 1.918 0 0 0 .033-.322c0-.202-.05-.359-.154-.47-.103-.112-.25-.168-.438-.168a.787.787 0 0 0-.612.264c-.161.176-.275.441-.347.795a3.92 3.92 0 0 0-.025.162 1.106 1.106 0 0 0-.006.151c0 .201.051.356.155.466.102.11.248.164.44.164a.794.794 0 0 0 .612-.26m-1.717.65c-.236-.226-.355-.53-.356-.916a2.527 2.527 0 0 1 .048-.463c.106-.532.334-.954.685-1.267.35-.313.772-.47 1.267-.47.405 0 .726.113.961.34.236.228.353.535.353.926 0 .067-.005.144-.014.227-.01.085-.023.165-.037.245-.105.525-.332.943-.682 1.25-.351.308-.772.462-1.263.462-.407 0-.727-.112-.962-.335M25.648 17.237h1.05c.274 0 .49-.064.65-.19.157-.127.26-.321.318-.585.01-.048.015-.092.022-.132.004-.039.008-.077.008-.114 0-.188-.067-.324-.2-.41-.135-.087-.346-.128-.637-.128h-.892l-.32 1.56zm-.591-2.47h2.362c.454 0 .805.103 1.046.306.24.204.361.498.361.88v.012c0 .073-.005.155-.012.243a3.457 3.457 0 0 1-.046.27 2.074 2.074 0 0 1-.718 1.221 2.032 2.032 0 0 1-1.33.462h-1.265l-.392 1.922h-1.097l1.09-5.315zM33.77 20.708c-.347.737-.678 1.167-.872 1.367-.194.198-.579.657-1.506.623l.08-.563c.78-.24 1.202-1.323 1.442-1.802l-.286-3.531.603-.009h.506l.055 2.216.948-2.216h.96l-1.93 3.915M30.52 18.738c-.167.491-.539.816-.83.724-.291-.09-.395-.564-.226-1.057.166-.492.54-.815.829-.723.291.09.397.564.226 1.056m.59-1.69l-.382.262c-.398-.312-.762-.505-1.465-.179-.956.444-1.756 3.847.878 2.726l.15.178 1.037.027.68-3.093-.898.079"/>
    </g>
</svg>
