<svg xmlns="http://www.w3.org/2000/svg" width="20" height="20" viewBox="0 0 20 20">
    <path fill="#6146F5" fill-rule="evenodd" d="M10 18.108a8.112 8.112 0 0 1-7.813-5.933c-.1-.356-.01-.039-.01-.039-.128-.583.269-1.059.865-1.059H9.82c.149 0 .184.086.078.192 0 0-.877.874-1.205 1.197-1.02 1.016.51 2.539 1.529 1.523l3.289-3.334a.959.959 0 0 0-.004-1.344l-3.285-3.3c-1.02-1.016-2.548.507-1.519 1.533a449.95 449.95 0 0 1 1.195 1.188c.107.106.07.191-.078.191H3.042c-.595 0-.984-.474-.866-1.06 0 0-.09.33.006-.02A8.108 8.108 0 1 1 10 18.108M10 0C4.477 0 0 4.477 0 10s4.477 10 10 10 10-4.477 10-10S15.523 0 10 0"/>
</svg>
