<svg xmlns="http://www.w3.org/2000/svg" width="40" height="40" viewBox="0 0 40 40">
    <g fill="none" fill-rule="evenodd">
        <path fill="#B9ACFF" d="M19.997 0c11.045 0 19.998 8.953 19.998 19.997 0 11.045-8.953 19.998-19.998 19.998C8.953 39.995 0 31.042 0 19.997 0 8.953 8.953 0 19.997 0"/>
        <path fill="#FFF" d="M3.883 19.147H5.44l.351-.859h.786l.35.86h3.065v-.657l.273.659h1.59l.274-.67v.667h7.616l-.004-1.41h.147c.104.004.134.014.134.187v1.223h3.938v-.328c.318.173.813.328 1.463.328h1.657l.354-.859h.787l.346.86h3.193v-.817l.484.816h2.559v-5.392H32.27v.637l-.354-.637h-2.599v.637l-.325-.637h-3.51c-.587 0-1.104.084-1.521.315v-.315h-2.422v.315c-.266-.239-.627-.315-1.03-.315H11.66l-.594 1.393-.61-1.393H7.67v.637l-.306-.637H4.986L3.882 16.32l-1.266 2.828h1.267zm30.108-.76h-1.292l-1.728-2.901v2.902h-1.857l-.354-.863h-1.894l-.344.863h-1.067c-.442 0-1.004-.1-1.321-.428-.32-.328-.487-.773-.487-1.476 0-.573.099-1.098.491-1.511.295-.309.757-.451 1.385-.451h.882v.828h-.864c-.333 0-.52.05-.701.23-.156.162-.262.47-.262.875 0 .414.081.713.25.908.14.153.396.2.636.2h.409l1.285-3.041h1.366l1.543 3.657v-3.657h1.388l1.602 2.692v-2.692h.934v3.866zm-11.72 0h.93v-3.865h-.93v3.866zm-.53-2.824c0 .616-.405.935-.642 1.03.2.078.37.213.451.326.13.192.152.364.152.709v.76h-.92l-.003-.488c0-.232.021-.568-.144-.753-.134-.136-.336-.166-.665-.166h-.979v1.407h-.911v-3.866h2.097c.466 0 .81.012 1.103.185.289.173.462.425.462.856zm-4.292 2.825h-3.046v-3.866h3.046v.805h-2.134v.697h2.082v.793h-2.082v.77h2.134v.8zm-3.725 0h-.935l-.003-3.028-1.322 3.028h-.8l-1.325-3.03v3.03H7.485l-.35-.863H5.237l-.354.863h-.99l1.632-3.866H6.88l1.55 3.66v-3.66h1.487l1.193 2.622 1.096-2.622h1.518v3.866zM28.45 16.72l-.63-1.542-.627 1.542h1.257zm-7.899-.614c-.125.077-.273.08-.45.08H18.99v-.859h1.123c.159 0 .325.007.432.07.118.056.191.176.191.341 0 .17-.07.305-.187.368zm-13.744.614l-.624-1.542-.62 1.542h1.244zM24.527 22.323c0 .165-.07.298-.19.37-.121.074-.272.08-.45.08H22.78v-.868h1.123c.163 0 .326.004.436.07.118.062.189.182.189.348zm-4.07.056c0 .335-.219.51-.569.51H18.71v-.984h1.19c.328 0 .557.136.557.474zm-4.056.666l1.4-1.524v3.098l-1.4-1.574zm-2.172-1.14l.998 1.126-1.042 1.134h-2.242v-.769h2.002v-.788h-2.002v-.703h2.286zm21.872 2.692c-.24.246-.628.373-1.133.373h-1.762v-.828h1.754c.174 0 .296-.023.37-.096a.34.34 0 0 0 .107-.252.32.32 0 0 0-.111-.256c-.066-.06-.162-.085-.322-.085-.856-.03-1.924.026-1.924-1.197 0-.56.351-1.15 1.308-1.15h1.782v.822h-1.627c-.165 0-.276.007-.369.07-.096.062-.133.155-.133.278 0 .146.08.245.2.288.096.034.199.044.35.044l.495.013c.499.013.832.1 1.034.311.037.03.06.063.085.096a1.268 1.268 0 0 1-.105 1.57zm-4.694.373H29.63v-.828h1.77c.172 0 .295-.023.372-.096a.345.345 0 0 0 .108-.252.334.334 0 0 0-.112-.256c-.07-.06-.166-.085-.325-.085-.852-.03-1.92.026-1.92-1.197 0-.56.347-1.15 1.303-1.15h1.829v.822h-1.673c-.166 0-.274.007-.366.07-.1.063-.137.155-.137.278 0 .146.085.245.2.288.096.034.2.044.355.044l.491.014c.495.011.835.099 1.041.31.178.186.273.42.273.818 0 .832-.513 1.22-1.433 1.22zm-2.322-3.065h-2.136v.703h2.083v.788H26.95v.77l2.136.003v.802H26.04v-3.865h3.044v.8zm-3.75 1.594c.13.188.148.364.152.705v.766h-.915v-.483c0-.233.021-.577-.148-.757-.134-.138-.336-.172-.67-.172h-.974v1.412h-.916v-3.864h2.105c.462 0 .798.02 1.098.182.288.176.469.417.469.858 0 .617-.407.932-.647 1.028a.995.995 0 0 1 .447.325zm-5.488.175H18.71v1.296h-1.772l-1.123-1.28-1.167 1.28h-3.613v-3.864h3.669l1.121 1.266 1.16-1.266H19.9c.723 0 1.536.203 1.536 1.273 0 1.073-.79 1.295-1.588 1.295zm16.954-.863v-2.473h-2.284c-.51 0-.88.123-1.141.315v-.315h-2.497c-.399 0-.868.1-1.089.315v-.315h-4.458v.315c-.355-.26-.954-.315-1.23-.315h-2.94v.315c-.281-.275-.905-.315-1.286-.315h-3.29l-.754.825-.705-.825h-4.916v5.39h4.823l.776-.837.73.838 2.974.003v-1.269h.292c.395.007.86-.01 1.27-.19v1.456h2.453v-1.406h.119c.15 0 .165.007.165.16v1.246h7.45c.473 0 .967-.123 1.241-.345v.345h2.363c.492 0 .972-.07 1.338-.249v-.006c.533-.344.888-.947.888-1.635 0-.378-.107-.73-.292-1.028z"/>
    </g>
</svg>
