<svg xmlns="http://www.w3.org/2000/svg" width="51" height="44" viewBox="0 0 51 44">
    <g fill="#7760F6" fill-rule="evenodd">
        <path d="M6.852 33.21c0-1.286.499-2.492 1.405-3.399a4.777 4.777 0 0 1 3.398-1.41h34.417a7.213 7.213 0 0 0-1.818 4.809c0 1.8.673 3.513 1.837 4.827H27.284v-3.589h14.443a1.23 1.23 0 1 0 0-2.46h-29.2a1.23 1.23 0 1 0 0 2.46h3.369v3.59h-4.217a4.833 4.833 0 0 1-4.827-4.829zM2.459 20.346c0-1.285.5-2.492 1.405-3.398a4.775 4.775 0 0 1 3.398-1.411H41.68a7.212 7.212 0 0 0-1.818 4.81c0 1.8.673 3.512 1.836 4.827H7.287a4.834 4.834 0 0 1-4.828-4.828zM7.836 7.27c0-1.286.5-2.492 1.405-3.398a4.774 4.774 0 0 1 3.398-1.41h34.416a7.212 7.212 0 0 0-1.817 4.809c0 1.8.673 3.513 1.837 4.827H12.664A4.833 4.833 0 0 1 7.836 7.27zm16.988 32.537l-3.234-1.779-3.235 1.779v-5.358h6.47v5.358zm-8.928 4.157l5.694-3.13 5.694 3.13v-3.467h21.272c.679 0 1.23-.55 1.23-1.23v-.79c0-.443-.238-.85-.622-1.07a4.84 4.84 0 0 1-2.45-4.196 4.775 4.775 0 0 1 2.448-4.187c.385-.218.623-.627.623-1.07v-.782c0-.678-.55-1.23-1.23-1.23h-3.162v-.328c0-.443-.238-.85-.622-1.069a4.84 4.84 0 0 1-2.45-4.197 4.773 4.773 0 0 1 2.448-4.186 1.23 1.23 0 0 0 .624-1.07v-.535h4.147c.68 0 1.23-.55 1.23-1.23v-.791c0-.442-.238-.85-.622-1.068a4.84 4.84 0 0 1-2.45-4.197 4.773 4.773 0 0 1 2.448-4.187c.385-.218.623-.627.623-1.07V1.23C50.77.55 50.22 0 49.54 0h-36.9a7.22 7.22 0 0 0-5.137 2.131 7.214 7.214 0 0 0-2.126 5.137 7.271 7.271 0 0 0 2.907 5.809h-1.02a7.222 7.222 0 0 0-5.138 2.132A7.222 7.222 0 0 0 0 20.347c0 3.927 3.125 7.13 7.017 7.273a7.216 7.216 0 0 0-2.625 5.59c0 4.017 3.269 7.286 7.287 7.286h4.217v3.467z"/>
        <path d="M37.199 21.639a1.23 1.23 0 1 0 0-2.46h-29.2a1.23 1.23 0 1 0 0 2.46h29.2zM13.64 8.665h29.2a1.23 1.23 0 1 0 0-2.46h-29.2a1.23 1.23 0 1 0 0 2.46"/>
    </g>
</svg>
