<svg xmlns="http://www.w3.org/2000/svg" xmlns:xlink="http://www.w3.org/1999/xlink" width="15" height="10" viewBox="0 0 15 10">
    <defs>
        <path id="a" d="M0 .402h6.644V10H0z"/>
    </defs>
    <g fill="none" fill-rule="evenodd">
        <path fill="#FFF" d="M3.986.696a.899.899 0 0 1 1.328 0 .901.901 0 0 1 0 1.26c-.385.435-.771.87-1.114 1.348C5.7 3.61 6.857 5 6.857 6.61c0 1.87-1.5 3.391-3.343 3.391a3.392 3.392 0 0 1-3.3-3.391c0-1.87 2.829-4.913 3.772-5.913z"/>
        <g transform="rotate(180 7.5 5)">
            <mask id="b" fill="#fff">
                <use xlink:href="#a"/>
            </mask>
            <path fill="#FFF" d="M3.343.402C1.5.402 0 1.924 0 3.793c0 1.61 1.157 3 2.657 3.305-.343.478-.728.913-1.114 1.348a.901.901 0 0 0 0 1.26c.386.392.986.392 1.328 0 .943-1.043 3.772-4.043 3.772-5.913a3.283 3.283 0 0 0-3.3-3.39" mask="url(#b)"/>
        </g>
    </g>
</svg>
