<svg xmlns="http://www.w3.org/2000/svg" width="40" height="40" viewBox="0 0 40 40">
    <g fill="none" fill-rule="evenodd">
        <path fill="#B9ACFF" d="M19.997 0c11.045 0 19.998 8.953 19.998 19.997 0 11.045-8.953 19.998-19.998 19.998C8.953 39.995 0 31.042 0 19.997 0 8.953 8.953 0 19.997 0"/>
        <path fill="#FFF" d="M21.281 16.118a2.631 2.631 0 1 1 0 5.263 2.631 2.631 0 0 1 0-5.263M6 16.287H4.558v4.995h1.436c.763 0 1.314-.18 1.797-.577a2.504 2.504 0 0 0 .914-1.919c0-1.474-1.111-2.5-2.703-2.5m1.148 3.752c-.31.278-.71.398-1.345.398H5.54v-3.303h.264c.635 0 1.02.112 1.345.404.34.3.542.764.542 1.243 0 .48-.202.96-.542 1.258M9.114 21.282h.981v-4.995h-.981zM12.496 18.202c-.59-.217-.764-.36-.764-.628 0-.315.31-.555.733-.555.294 0 .536.12.794.404l.512-.666a2.211 2.211 0 0 0-1.48-.554c-.89 0-1.57.614-1.57 1.429 0 .69.316 1.042 1.238 1.372.385.134.581.224.68.284a.598.598 0 0 1 .294.517c0 .405-.324.704-.763.704-.468 0-.846-.232-1.072-.666l-.634.607c.452.658.996.951 1.744.951 1.02 0 1.737-.675 1.737-1.64 0-.795-.331-1.155-1.45-1.56M14.262 18.73c0 1.47 1.163 2.609 2.658 2.609.423 0 .785-.083 1.231-.292V19.9c-.393.39-.74.547-1.186.547-.99 0-1.692-.712-1.692-1.723 0-.959.725-1.715 1.647-1.715.468 0 .823.164 1.231.561v-1.146c-.43-.216-.785-.306-1.209-.306-1.487 0-2.68 1.161-2.68 2.613M26.13 19.642l-1.345-3.355h-1.072l2.138 5.123h.528l2.176-5.123H27.49zM29.03 21.282h2.786v-.846H30.01v-1.35h1.736v-.844H30.01v-1.11h1.805v-.845H29.03zM35.73 17.76c0-.935-.65-1.473-1.783-1.473h-1.458v4.995h.983v-2.008h.129l1.358 2.008h1.209l-1.587-2.105c.741-.15 1.148-.652 1.148-1.416m-1.97.825h-.287v-1.514h.302c.612 0 .945.256.945.742 0 .501-.333.772-.96.772M11.73 25.932v-2.81l1.919 2.008V23.3h.397v2.791l-1.919-2.002v1.842h-.397zM16.135 23.664h-1.054v.632h1.024v.374H15.08v.879h1.054v.373h-1.451v-2.63h1.451zM17.373 23.664v2.258h-.397v-2.258h-.605v-.373h1.606v.373zM18.575 23.25l.685 1.759.716-1.887.685 1.887.727-1.759h.432l-1.176 2.798-.677-1.864-.705 1.866-1.119-2.8zM22.342 24.564c0 .29.097.53.293.717a.94.94 0 0 0 .673.28.949.949 0 0 0 .699-.285.967.967 0 0 0 .284-.705.961.961 0 0 0-.281-.705.928.928 0 0 0-.692-.286.936.936 0 0 0-.693.286.945.945 0 0 0-.283.698m-.401-.004c0-.37.136-.689.407-.954a1.34 1.34 0 0 1 .975-.4c.375 0 .697.135.965.403.269.268.403.59.403.966 0 .378-.135.7-.405.963-.271.265-.6.397-.983.397a1.36 1.36 0 0 1-.915-.352c-.298-.26-.447-.602-.447-1.023M25.545 24.5h.126c.376 0 .564-.145.564-.432 0-.27-.183-.404-.549-.404h-.14v.835zm.494.3l.815 1.122h-.486l-.751-1.077h-.072v1.077h-.397v-2.63h.465c.348 0 .598.065.753.195a.72.72 0 0 1 .256.576.745.745 0 0 1-.16.48.714.714 0 0 1-.423.258zM27.655 24.34l1.024-1.049h.53l-1.19 1.192 1.197 1.44h-.532l-.948-1.171-.081.082v1.088h-.398v-2.63h.398v1.049z"/>
        <path fill="#C8BEFF" d="M39.914 21.519c-3.76 4.764-12.49 12.993-28.015 16.792a19.919 19.919 0 0 0 8.079 1.705c10.539 0 19.168-8.155 19.936-18.497"/>
    </g>
</svg>
