<svg xmlns="http://www.w3.org/2000/svg" width="44" height="50" viewBox="0 0 44 50">
    <path fill="#7760F6" fill-rule="evenodd" d="M42.225 44.372a3.79 3.79 0 0 1-1.1 2.69 3.727 3.727 0 0 1-2.663 1.115l-32.916.033h-.002A3.73 3.73 0 0 1 2.88 47.1a3.787 3.787 0 0 1-1.105-2.689 3.808 3.808 0 0 1 .633-2.107l10.957-16.657 17.229-.018 10.995 16.638c.417.63.637 1.359.637 2.105h-.001zM16.9 3.718c0-.718-.278-1.393-.783-1.902l-.014-.013 11.709-.01-.013.012a2.684 2.684 0 0 0-.78 1.902l.011 11.84a15.61 15.61 0 0 0 2.396 8.291l-14.9.016a15.574 15.574 0 0 0 2.386-8.299L16.9 3.718zm26.164 37.555L31.808 24.236l-.005-.005-.709-1.074a13.813 13.813 0 0 1-2.287-7.612l-.01-11.84a.898.898 0 0 1 .894-.9h.23a.892.892 0 0 0 .884-.896l-.002-.837A1.07 1.07 0 0 0 29.74 0L14.176.014a1.068 1.068 0 0 0-1.063 1.074l.001.838c0 .238.094.466.261.633a.883.883 0 0 0 .626.261h.232a.898.898 0 0 1 .893.9l.012 11.837a13.79 13.79 0 0 1-2.279 7.618l-.71 1.08-.002.002L.93 41.313A5.601 5.601 0 0 0 0 44.412c0 1.495.578 2.9 1.626 3.954A5.484 5.484 0 0 0 5.545 50h.002l32.916-.033a5.48 5.48 0 0 0 3.92-1.64A5.576 5.576 0 0 0 44 44.37a5.606 5.606 0 0 0-.935-3.097z"/>
</svg>
