<svg xmlns="http://www.w3.org/2000/svg" width="255" height="220" viewBox="0 0 255 220">
    <defs>
        <linearGradient id="a" x1="-.007%" y1="49.999%" y2="49.999%">
            <stop offset=".541%" stop-color="#8CDAFE"/>
            <stop offset="100%" stop-color="#E064F7"/>
        </linearGradient>
        <linearGradient id="b" x1="-.012%" x2="99.98%" y1="49.986%" y2="49.986%">
            <stop offset=".541%" stop-color="#EFC23F"/>
            <stop offset="100%" stop-color="#E064F7"/>
        </linearGradient>
        <linearGradient id="c" x1="9.285%" x2="90.256%" y1="49.632%" y2="80.208%">
            <stop offset="0%" stop-color="#8CDAFE"/>
            <stop offset="100%" stop-color="#E064F7"/>
        </linearGradient>
        <linearGradient id="d" x1="12.579%" x2="87.822%" y1="60.918%" y2="38.962%">
            <stop offset="0%" stop-color="#EFC23F"/>
            <stop offset="100%" stop-color="#E064F7"/>
        </linearGradient>
    </defs>
    <g fill="none" fill-rule="evenodd" transform="translate(0 5)">
        <circle cx="103.551" cy="172.839" r="9.482" fill="url(#a)" fill-rule="nonzero"/>
        <circle cx="189.714" cy="41.888" r="6.164" fill="url(#b)" fill-rule="nonzero"/>
        <path fill="url(#c)" d="M166.725 54.654c59.949 23.6 101.833 38.826 82.744 63.382-31.253 40.205-143.96 56.176-187.473 37.642-38.61-16.445 2.819-58.321 41.169-107.655 11.992-15.427 32.226-5.705 63.56 6.63z"/>
        <path fill="url(#d)" d="M140.558 52.068c60.659 26.368 103.04 43.379 83.725 70.814-31.624 44.919-145.666 62.763-189.695 42.056C-4.48 146.565 37.44 99.778 76.244 44.66c12.135-17.236 32.608-6.374 64.314 7.408z" opacity=".95" transform="scale(-1 1) rotate(-23 0 714.065)"/>
        <path fill="#FFF" d="M121.687 105.535h2.519v-2.519h-2.52v2.519zm-5.038 0h2.52v-2.519h-2.52v2.519zm-5.037 0h2.519v-2.519h-2.52v2.519zm12.342-25.188H111.99c-4.534 2.015-7.43 6.297-7.808 11.335h27.58c-.504-5.038-3.4-9.32-7.808-11.335zM122.82 94.2h-9.697c.504 2.141 2.519 3.779 4.912 3.779 2.266 0 4.156-1.638 4.785-3.779zm-9.949-16.371h10.075v-2.52c0-1.384-.504-2.644-1.511-3.525-.882-1.008-2.141-1.512-3.526-1.512-1.386 0-2.645.504-3.527 1.512-1.007.881-1.51 2.14-1.51 3.526v2.519zm45.338 66.746v3.779h-21.41v-2.52h18.89v-1.259c0-1.637-.629-3.274-1.888-4.407-1.26-1.134-2.77-1.89-4.408-1.89h-7.556v-2.518h3.778V94.2c0-4.407-1.763-8.437-4.786-11.586-3.148-3.022-7.178-4.785-11.586-4.785h-3.778v.503c5.415 2.771 8.816 8.312 8.816 14.61V94.2h-8.942c-.63 3.527-3.652 6.297-7.43 6.297-3.778 0-6.8-2.77-7.43-6.297h-8.942v-1.259c0-6.297 3.4-11.964 8.815-14.609V75.31c0-2.015.756-3.904 2.267-5.29 1.386-1.51 3.275-2.266 5.29-2.266s3.904.755 5.29 2.266c1.51 1.386 2.266 3.275 2.266 5.29h3.778c5.038 0 9.823 2.015 13.35 5.541a18.872 18.872 0 0 1 5.54 13.35v41.559h1.26c2.393 0 4.534.881 6.171 2.645 1.763 1.637 2.645 3.778 2.645 6.17zm-73.044-16.371h49.116v-2.52H85.165v2.52zm0 5.037h49.116v-2.519H85.165v2.52zm42.819 5.038h-16.372c.881 1.133 1.26 2.392 1.26 3.778 0 1.385-.505 2.644-1.26 3.778h16.372c1.007 0 2.015-.378 2.644-1.134.756-.755 1.134-1.637 1.134-2.644 0-1.008-.378-2.015-1.134-2.645-.755-.63-1.637-1.133-2.644-1.133zm-47.857-17.632h5.038v-7.556h-5.038v7.556zm46.597 0h5.038v-7.556h-5.038v7.556zm-39.04 0h36.522v-7.556H87.684v7.556zm45.337 17.632c.882 1.133 1.26 2.392 1.26 3.778 0 1.637-.63 3.274-1.89 4.408-1.133 1.259-2.77 1.889-4.407 1.889H77.609v-2.52c1.007 0 2.015-.377 2.644-1.133.63-.755 1.134-1.637 1.134-2.644v-1.26h2.519v1.26c0 1.385-.504 2.644-1.26 3.778h23.928c1.008 0 2.015-.378 2.645-1.134.63-.755 1.133-1.637 1.133-2.644 0-1.008-.377-2.015-1.133-2.645-.63-.756-1.637-1.133-2.645-1.133H77.61v-2.52h2.644l-.126-.125c-1.637-1.637-2.518-3.778-2.518-6.171 0-2.393.881-4.534 2.644-6.171l.126-.126h-2.77v-12.594h56.672v10.075h2.518v2.52H86.424c-1.637 0-3.274.629-4.407 1.888-1.26 1.134-1.89 2.77-1.89 4.408 0 1.637.63 3.274 1.89 4.408 1.133 1.26 2.77 1.889 4.407 1.889H136.8v2.519h-3.778zm-42.819-20.15h31.485v-2.52H90.202v2.52zm-3.778 25.187h21.41v-2.519h-21.41v2.52z"/>
    </g>
</svg>
