<svg xmlns="http://www.w3.org/2000/svg" width="20" height="20" viewBox="0 0 20 20">
    <path fill="#6146F5" fill-rule="evenodd" d="M10 18.108a8.112 8.112 0 0 0 7.813-5.933c.1-.356.01-.039.01-.039.128-.583-.269-1.059-.865-1.059H10.18c-.149 0-.184.086-.078.192 0 0 .877.874 1.205 1.197 1.02 1.016-.51 2.539-1.529 1.523L6.49 10.655a.959.959 0 0 1 .004-1.344l3.285-3.3c1.02-1.016 2.548.507 1.519 1.533-.319.314-1.195 1.188-1.195 1.188-.107.106-.07.191.078.191h6.778c.595 0 .984-.474.866-1.06 0 0 .09.33-.006-.02A8.108 8.108 0 1 0 10 18.108M10 0c5.523 0 10 4.477 10 10s-4.477 10-10 10S0 15.523 0 10 4.477 0 10 0"/>
</svg>
