<svg xmlns="http://www.w3.org/2000/svg" width="41" height="39" viewBox="0 0 41 39">
    <path fill="#7760F6" fill-rule="evenodd" d="M11.616 21.218a2.044 2.044 0 1 1-2.044 2.045c0-1.13.916-2.045 2.044-2.045zm-2.043-8.182a2.044 2.044 0 1 1 2.043 2.046 2.044 2.044 0 0 1-2.043-2.046zM3.443 6.9a2.044 2.044 0 0 1-2.044-2.045A2.044 2.044 0 1 1 3.442 6.9zm14.495 3.619a3.36 3.36 0 0 0 5.072-.005l3.011 1.74a3.408 3.408 0 0 0-.1.782 3.415 3.415 0 0 0 2.725 3.341v3.545a3.415 3.415 0 0 0-2.724 3.341c0 .467.097.93.285 1.357l-3.197 1.848a3.359 3.359 0 0 0-5.072-.006l-3.198-1.847a3.402 3.402 0 0 0-2.429-4.689v-3.553a3.372 3.372 0 0 0 2.614-4.113l3.013-1.741zm2.534-4.3a2.044 2.044 0 1 1-2.044 2.045c0-1.13.915-2.046 2.044-2.046zm8.856 4.772a2.044 2.044 0 1 1-2.044 2.045c0-1.13.915-2.045 2.044-2.045zm8.174-9.546c1.129 0 2.044.916 2.044 2.046a2.044 2.044 0 1 1-2.044-2.046zm-6.13 21.818a2.044 2.044 0 1 1-2.044-2.045c1.128 0 2.043.915 2.043 2.045zM28.645 33.49c1.13 0 2.044.916 2.044 2.046a2.044 2.044 0 1 1-2.044-2.046zm-8.174-2.727a2.044 2.044 0 0 1-2.044-2.045 2.044 2.044 0 1 1 2.044 2.045zm-17.03 2.045A2.044 2.044 0 0 1 1.4 30.763a2.044 2.044 0 1 1 2.043 2.045zm34.06-11.59a2.044 2.044 0 1 1-2.044 2.045c0-1.13.915-2.045 2.044-2.045zm-34.06 6.136A3.427 3.427 0 0 0 0 30.766a3.427 3.427 0 0 0 3.41 3.446 3.428 3.428 0 0 0 2.893-5.29l3.406-2.84c1.32.9 3.09.754 4.244-.352l3.305 1.909a3.364 3.364 0 0 0-.192 1.079 3.408 3.408 0 0 0 5.313 2.82l3.151 2.629c-.19.43-.29.897-.29 1.369A3.434 3.434 0 0 0 28.643 39a3.434 3.434 0 0 0 3.461-3.406 3.434 3.434 0 0 0-5.774-2.54l-2.997-2.496c.57-.858.703-1.934.358-2.906L27 25.742a3.392 3.392 0 0 0 5.665-1.797h1.5a3.406 3.406 0 1 0 6.674-1.364 3.406 3.406 0 0 0-6.675 0h-1.499a3.418 3.418 0 0 0-2.656-2.659v-3.545a3.409 3.409 0 0 0 2.143-5.243l3.964-4.535a3.45 3.45 0 0 0 4.573-1.711 3.456 3.456 0 0 0-1.71-4.576 3.45 3.45 0 0 0-4.572 1.711 3.457 3.457 0 0 0 .601 3.772l-3.834 4.386a3.37 3.37 0 0 0-4.571.833l-2.91-1.682c.118-.344.181-.704.185-1.068a3.408 3.408 0 0 0-3.406-3.41 3.408 3.408 0 0 0-3.406 3.41c.005.366.069.728.19 1.074l-2.909 1.681a3.377 3.377 0 0 0-4.606-.824l-3.46-3.463a3.42 3.42 0 0 0-.964-4.739 3.414 3.414 0 0 0-4.734.964 3.42 3.42 0 0 0 .963 4.739 3.413 3.413 0 0 0 3.771 0l3.46 3.463a3.404 3.404 0 0 0 2.172 5.218v3.545a3.395 3.395 0 0 0-2.194 5.182L5.35 27.945a3.384 3.384 0 0 0-1.907-.591z"/>
</svg>
