<svg xmlns="http://www.w3.org/2000/svg" xmlns:xlink="http://www.w3.org/1999/xlink" width="255" height="217" viewBox="0 0 255 217">
    <defs>
        <linearGradient id="a" x1="13.813%" x2="90.842%" y1="15.677%" y2="89.502%">
            <stop offset="0%" stop-color="#8CDAFE"/>
            <stop offset="100%" stop-color="#E064F7"/>
        </linearGradient>
        <linearGradient id="b" x1="12.579%" x2="87.822%" y1="60.918%" y2="38.962%">
            <stop offset="0%" stop-color="#EFC23F"/>
            <stop offset="100%" stop-color="#E064F7"/>
        </linearGradient>
        <linearGradient id="c" x1="-.007%" y1="49.999%" y2="49.999%">
            <stop offset=".541%" stop-color="#8CDAFE"/>
            <stop offset="100%" stop-color="#E064F7"/>
        </linearGradient>
        <linearGradient id="d" x1="-.012%" x2="99.98%" y1="49.986%" y2="49.986%">
            <stop offset=".541%" stop-color="#EFC23F"/>
            <stop offset="100%" stop-color="#E064F7"/>
        </linearGradient>
        <path id="e" d="M0 .75h82.522v61.267H0z"/>
        <path id="g" d="M0 62.267h82.522V1H0z"/>
    </defs>
    <g fill="none" fill-rule="evenodd">
        <path fill="url(#a)" d="M33.85 114.25c39.415-49.862 26.985-82.383 77.347-72.685 76.323 14.699 147.012 73.79 118.474 109.893-24.592 31.111-94.386 30.885-195.82 11.35-25.25-4.862-13.716-31.207 0-48.557z"/>
        <path fill="url(#b)" d="M33.85 114.25c39.415-49.862 26.985-82.383 77.347-72.685 76.323 14.699 147.012 73.79 118.474 109.893-24.592 31.111-94.386 30.885-195.82 11.35-25.25-4.862-13.716-31.207 0-48.557z" opacity=".946" transform="scale(-1 1) rotate(-25 0 683.377)"/>
        <circle cx="132.414" cy="29.29" r="10.003" fill="url(#c)" fill-rule="nonzero"/>
        <circle cx="102.412" cy="186.964" r="6.502" fill="url(#d)" fill-rule="nonzero"/>
        <g transform="translate(75.718 78.242)">
            <mask id="f" fill="#fff">
                <use xlink:href="#e"/>
            </mask>
            <path fill="#FFF" d="M79.71 53.89h-7.815V23.412a3.91 3.91 0 0 1 3.907-3.907 3.911 3.911 0 0 1 3.907 3.907V53.89zM13.44 37.947h55.64v-7.814h-55.64v7.814zm0 15.943h55.64V40.76h-55.64V53.89zm-2.814 0H2.813V23.412a3.911 3.911 0 0 1 3.907-3.907 3.91 3.91 0 0 1 3.907 3.907V53.89zm71.896-30.478a6.734 6.734 0 0 0-4.481-6.302l-.834-.295v-4.03C77.2 6.157 71.801.757 65.172.75h-9.375v2.813h9.377c5.085 0 9.222 4.137 9.222 9.221v4.03l-.835.296a6.736 6.736 0 0 0-4.48 6.307v3.903h-55.64v-3.908a6.734 6.734 0 0 0-4.48-6.302l-.834-.295v-4.03c0-5.085 4.137-9.222 9.221-9.222h9.378V.75h-9.378C10.721.758 5.322 6.158 5.314 12.786v4.029l-.833.295a6.736 6.736 0 0 0-4.482 6.307v33.286h5.315v5.314h2.813v-5.314h66.269v5.314h2.812v-5.314h5.315v-33.29z" mask="url(#f)"/>
            <mask id="h" fill="#fff">
                <use xlink:href="#g"/>
            </mask>
            <path fill="#FFF" d="M34.01 3.814h2.813V1h-2.814zM45.012 3.814h2.814V1h-2.814z" mask="url(#h)"/>
        </g>
    </g>
</svg>
