<svg xmlns="http://www.w3.org/2000/svg" xmlns:xlink="http://www.w3.org/1999/xlink" width="1297" height="241" viewBox="0 0 1297 241">
    <defs>
        <path id="a" d="M0 52h57V0H0z"/>
    </defs>
    <g fill="none" fill-rule="evenodd">
        <g fill="#7760F6">
            <path d="M807.624 0h-10.379c-.053 0-.1.023-.15.03a.998.998 0 0 0-1.093.669l-8.433 25.137-3.571-11.402a1 1 0 0 0-1.03-.697c-.035-.004-.065-.02-.1-.02h-5.85c-.562 0-1.018.46-1.018 1.027 0 .568.456 1.028 1.018 1.028h5.268l4.223 13.49c.142.457.572.724 1.023.7.448.026.877-.228 1.028-.679l9.135-27.227h9.929c.564 0 1.017-.46 1.017-1.028 0-.568-.453-1.026-1.017-1.028"/>
            <path d="M801.572 23.062l4.288-4.91a1.03 1.03 0 0 0-.088-1.45 1.01 1.01 0 0 0-1.439.093l-4.116 4.715-4.12-4.715a1.01 1.01 0 0 0-1.438-.093 1.033 1.033 0 0 0-.087 1.452l4.287 4.908-4.287 4.907a1.031 1.031 0 0 0 .091 1.45c.421.377 1.06.334 1.435-.091l4.117-4.712 4.116 4.712a1.007 1.007 0 0 0 1.435.09 1.031 1.031 0 0 0 .092-1.449l-4.286-4.907z"/>
        </g>
        <g transform="translate(0 189)">
            <path fill="#7760F6" d="M1.813 43.85h19.03a8.158 8.158 0 0 1 6.345 3.033V12.151c0-3.501-2.84-6.34-6.344-6.34H1.812V43.85zM29 52h-1.813c0-3.501-2.84-6.34-6.343-6.34H0V4h20.844C25.349 4 29 7.649 29 12.15V52z"/>
            <path fill="#7760F6" d="M29.813 52H28c0-4.502 3.651-8.15 8.156-8.15h19.032V5.81h-6.344V4H57v41.66H36.156A6.342 6.342 0 0 0 29.813 52M29.818 12H28c0-4.419 3.663-8 8.182-8H38v1.778h-1.818c-3.515 0-6.364 2.786-6.364 6.222"/>
            <path fill="#7760F6" d="M38.857 1.85V19.54l4.643-3.08 4.643 3.08V1.85h-9.286zM50 23l-6.5-4.319-6.5 4.31V0h13v23z"/>
            <mask id="b" fill="#fff">
                <use xlink:href="#a"/>
            </mask>
            <path fill="#7760F6" d="M8 15h13v-2H8zM8 22h13v-2H8zM8 29h13v-2H8zM8 37h13v-2H8zM36 29h13v-2H36zM36 37h13v-2H36z" mask="url(#b)"/>
        </g>
        <path fill="#7760F6" d="M1295.225 219.372a3.79 3.79 0 0 1-1.1 2.69 3.727 3.727 0 0 1-2.663 1.115l-32.916.033h-.002a3.73 3.73 0 0 1-2.664-1.11 3.787 3.787 0 0 1-1.105-2.689 3.808 3.808 0 0 1 .633-2.107l10.957-16.657 17.229-.018 10.995 16.638c.417.63.637 1.359.637 2.105h-.001zm-25.324-40.654c0-.718-.278-1.393-.783-1.902l-.014-.013 11.709-.01-.013.012a2.684 2.684 0 0 0-.78 1.902l.011 11.84a15.61 15.61 0 0 0 2.396 8.291l-14.9.016a15.574 15.574 0 0 0 2.386-8.299l-.012-11.837zm26.164 37.555l-11.257-17.037-.005-.005-.709-1.074a13.813 13.813 0 0 1-2.287-7.612l-.01-11.84a.898.898 0 0 1 .894-.9h.23a.892.892 0 0 0 .884-.896l-.002-.837a1.07 1.07 0 0 0-1.064-1.072l-15.563.014a1.068 1.068 0 0 0-1.063 1.074l.001.838c0 .238.094.466.261.633a.883.883 0 0 0 .626.261h.232a.898.898 0 0 1 .893.9l.012 11.837a13.79 13.79 0 0 1-2.279 7.618l-.71 1.08-.002.002-11.218 17.056a5.601 5.601 0 0 0-.929 3.099c0 1.495.578 2.9 1.626 3.954a5.484 5.484 0 0 0 3.919 1.634h.002l32.916-.033a5.48 5.48 0 0 0 3.92-1.64 5.576 5.576 0 0 0 1.617-3.957 5.606 5.606 0 0 0-.935-3.097z"/>
    </g>
</svg>
