<svg xmlns="http://www.w3.org/2000/svg" width="48" height="45" viewBox="0 0 48 45">
    <g fill="#7760F6" fill-rule="evenodd">
        <path d="M.933 23.655h20.461v20.414c0 .521.411.931.934.931.523 0 .933-.41.933-.931V23.655h18.744l-2.203 1.453c-.41.298-.56.856-.261 1.303.186.261.485.41.784.41a.859.859 0 0 0 .522-.149l4.742-3.166a.922.922 0 0 0 .411-.782.922.922 0 0 0-.41-.783l-4.705-3.166c-.411-.298-1.008-.186-1.307.26a.917.917 0 0 0 .261 1.304l2.203 1.453h-18.78V4.023l1.456 2.198c.186.26.485.41.784.41a.859.859 0 0 0 .522-.15c.411-.297.56-.856.262-1.303L23.112.41a.925.925 0 0 0-.784-.41c-.336 0-.597.149-.747.41l-3.174 4.73c-.298.41-.186 1.007.262 1.305.41.298 1.008.186 1.307-.261l1.456-2.198v17.769H.933a.923.923 0 0 0-.933.931c0 .522.41.969.933.969"/>
        <path d="M8.899 13c.11 0 .258-.036.37-.073 1.55-.652 2.843-1.523 3.84-2.647.924-1.016 1.33-1.959 1.958-3.374.259-.544.517-1.16.886-1.922a56.603 56.603 0 0 1 1.921-3.627c.259-.435.11-.98-.37-1.233a.901.901 0 0 0-1.255.362 45.01 45.01 0 0 0-1.958 3.736c-.11.254-.221.472-.332.726-.813-.508-1.551-1.161-2.18-1.85a9.114 9.114 0 0 1-1.44-2.14c-.221-.435-.775-.617-1.256-.4-.443.219-.627.763-.406 1.234.443.907 1.034 1.741 1.7 2.54a13.357 13.357 0 0 0 2.806 2.357c-.48 1.088-.85 1.777-1.477 2.502-.813.907-1.884 1.633-3.14 2.177-.48.181-.701.725-.48 1.197.111.254.48.435.813.435M43.5 31.179l-2.86-2.893a.965.965 0 0 0-1.334-.035.826.826 0 0 0-.038 1.25l2.974 3-2.974 3c-.344.356-.344.928.038 1.249.19.143.42.25.648.25a.985.985 0 0 0 .686-.286l2.86-2.892 2.86 2.892c.19.179.457.286.686.286a.925.925 0 0 0 .648-.25.826.826 0 0 0 .038-1.25l-2.974-3 2.974-3c.344-.357.344-.928-.038-1.25-.381-.32-.991-.32-1.334.036L43.5 31.18zM13.106 34.5c0 1.975-1.401 3.563-3.106 3.563-1.705 0-3.106-1.588-3.106-3.563S8.295 30.937 10 30.937c1.705 0 3.106 1.588 3.106 3.563M5 34.5c0 3.06 2.235 5.5 5 5.5s5-2.479 5-5.5-2.235-5.5-5-5.5-5 2.44-5 5.5"/>
    </g>
</svg>
