<svg xmlns="http://www.w3.org/2000/svg" xmlns:xlink="http://www.w3.org/1999/xlink" width="57" height="52" viewBox="0 0 57 52">
    <defs>
        <path id="a" d="M0 52h57V0H0z"/>
    </defs>
    <g fill="none" fill-rule="evenodd">
        <path fill="#7760F6" d="M1.813 43.85h19.03a8.158 8.158 0 0 1 6.345 3.033V12.151c0-3.501-2.84-6.34-6.344-6.34H1.812V43.85zM29 52h-1.813c0-3.501-2.84-6.34-6.343-6.34H0V4h20.844C25.349 4 29 7.649 29 12.15V52z"/>
        <path fill="#7760F6" d="M29.813 52H28c0-4.502 3.651-8.15 8.156-8.15h19.032V5.81h-6.344V4H57v41.66H36.156A6.342 6.342 0 0 0 29.813 52M29.818 12H28c0-4.419 3.663-8 8.182-8H38v1.778h-1.818c-3.515 0-6.364 2.786-6.364 6.222"/>
        <path fill="#7760F6" d="M38.857 1.85V19.54l4.643-3.08 4.643 3.08V1.85h-9.286zM50 23l-6.5-4.319-6.5 4.31V0h13v23z"/>
        <mask id="b" fill="#fff">
            <use xlink:href="#a"/>
        </mask>
        <path fill="#7760F6" d="M8 15h13v-2H8zM8 22h13v-2H8zM8 29h13v-2H8zM8 37h13v-2H8zM36 29h13v-2H36zM36 37h13v-2H36z" mask="url(#b)"/>
    </g>
</svg>
