<svg xmlns="http://www.w3.org/2000/svg" xmlns:xlink="http://www.w3.org/1999/xlink" width="30" height="23" viewBox="0 0 30 23">
    <defs>
        <path id="a" d="M.063.117h13.734v22.127H.063z"/>
    </defs>
    <g fill="none" fill-rule="evenodd">
        <path fill="#CDCED8" d="M13.264 1.347c.22-.47-.125-1.034-.626-1.034h-2.632a.67.67 0 0 0-.564.282L1.171 11.75a6.746 6.746 0 0 0-1.128 4.574c.345 3.321 3.133 5.953 6.485 6.11a6.863 6.863 0 0 0 7.206-6.862 6.922 6.922 0 0 0-4.323-6.329l3.853-7.895z"/>
        <g transform="translate(15.978)">
            <mask id="b" fill="#fff">
                <use xlink:href="#a"/>
            </mask>
            <path fill="#CDCED8" d="M9.473 9.046l3.854-7.895c.22-.47-.125-1.034-.627-1.034H10.07A.67.67 0 0 0 9.505.4L1.234 11.553a6.746 6.746 0 0 0-1.128 4.574c.344 3.321 3.133 5.953 6.485 6.11a6.863 6.863 0 0 0 7.206-6.862 6.922 6.922 0 0 0-4.324-6.329" mask="url(#b)"/>
        </g>
    </g>
</svg>
