<svg xmlns="http://www.w3.org/2000/svg" width="40" height="40" viewBox="0 0 40 40">
    <g fill="none" fill-rule="evenodd">
        <path fill="#B9ACFF" d="M19.997 0c11.045 0 19.998 8.953 19.998 19.997 0 11.045-8.953 19.998-19.998 19.998C8.953 39.995 0 31.042 0 19.997 0 8.953 8.953 0 19.997 0"/>
        <path fill="#FFF" d="M29.396 20.159c-.097.461-.464.662-.91.683-.387.02-.735-.323-.483-.724.193-.34.735-.421 1.064-.421h.426c-.04.16-.059.3-.097.462m-.116-3.534c-.832 0-1.49.22-1.994.322l-.154 1.265c.251-.121 1.045-.341 1.703-.362.658-.02 1.045.12.91.683-1.955 0-3.272.4-3.542 1.666-.388 2.168 1.993 2.108 2.942 1.164l-.116.522h1.741l.755-3.454c.309-1.465-1.026-1.826-2.245-1.806M33.002 15.274l-1.44 6.625h1.768l1.46-6.625zM24.786 17.523c-.116.502-.62.903-1.106.903h-.873l.388-1.807h.931c.485 0 .776.402.66.904m.058-2.249h-3.24L20.17 21.88h1.881l.485-2.188h1.339c1.319 0 2.405-.803 2.696-2.168.33-1.546-.795-2.249-1.726-2.249M12.479 20.159c-.096.461-.479.662-.918.683-.382.02-.707-.323-.459-.724.191-.34.727-.421 1.033-.421h.44c-.04.16-.077.3-.096.462m-.134-3.534c-.822 0-1.472.22-1.95.322l-.153 1.264c.23-.12 1.013-.34 1.663-.362.65-.02 1.033.121.918.683-1.93 0-3.23.401-3.499 1.666-.382 2.169 1.97 2.109 2.887 1.165l-.114.522h1.74l.745-3.454c.306-1.465-1.033-1.826-2.237-1.806M15.329 16.709h1.74l.28 3.076 1.702-3.076h1.796l-4.134 7.361h-1.945l1.271-2.164zM7.92 17.523c-.117.502-.603.903-1.09.903h-.894l.409-1.807h.933c.467 0 .778.402.642.904m.058-2.249H4.73L3.291 21.88h1.906l.467-2.188h1.361c1.303 0 2.392-.803 2.684-2.168.33-1.546-.778-2.249-1.73-2.249M35.144 16.076v-.781h-.292v-.105h.703v.105h-.293v.781zM35.696 16.076v-.886h.176l.21.627c.02.058.033.102.042.13l.047-.141.213-.616h.158v.886h-.113v-.742l-.258.742h-.105l-.257-.754v.754h-.113z"/>
    </g>
</svg>
