<svg xmlns="http://www.w3.org/2000/svg" width="859" height="425" viewBox="0 0 859 425">
    <g fill="#7760F6" fill-rule="evenodd">
        <path d="M549.852 134.21c0-1.286.499-2.492 1.405-3.399a4.777 4.777 0 0 1 3.398-1.41h34.417a7.213 7.213 0 0 0-1.818 4.809c0 1.8.673 3.513 1.837 4.827h-18.807v-3.589h14.443a1.23 1.23 0 1 0 0-2.46h-29.2a1.23 1.23 0 1 0 0 2.46h3.369v3.59h-4.217a4.833 4.833 0 0 1-4.827-4.829zm-4.393-12.863c0-1.285.5-2.492 1.405-3.398a4.775 4.775 0 0 1 3.398-1.411h34.417a7.212 7.212 0 0 0-1.818 4.81c0 1.8.673 3.512 1.836 4.827h-34.41a4.834 4.834 0 0 1-4.828-4.828zm5.377-13.078c0-1.286.5-2.492 1.405-3.398a4.774 4.774 0 0 1 3.398-1.41h34.416a7.212 7.212 0 0 0-1.817 4.809c0 1.8.673 3.513 1.837 4.827h-34.411a4.833 4.833 0 0 1-4.828-4.828zm16.988 32.537l-3.234-1.779-3.235 1.779v-5.358h6.47v5.358zm-8.928 4.157l5.694-3.13 5.694 3.13v-3.467h21.272c.679 0 1.23-.55 1.23-1.23v-.79c0-.443-.238-.85-.622-1.07a4.84 4.84 0 0 1-2.45-4.196 4.775 4.775 0 0 1 2.448-4.187c.385-.218.623-.627.623-1.07v-.782c0-.678-.55-1.23-1.23-1.23h-3.162v-.328c0-.443-.238-.85-.622-1.069a4.84 4.84 0 0 1-2.45-4.197 4.773 4.773 0 0 1 2.448-4.186 1.23 1.23 0 0 0 .624-1.07v-.535h4.147c.68 0 1.23-.55 1.23-1.23v-.791c0-.442-.238-.85-.622-1.068a4.84 4.84 0 0 1-2.45-4.197 4.773 4.773 0 0 1 2.448-4.187c.385-.218.623-.627.623-1.07v-.783c0-.679-.55-1.23-1.23-1.23h-36.9a7.22 7.22 0 0 0-5.137 2.131 7.214 7.214 0 0 0-2.126 5.137 7.271 7.271 0 0 0 2.907 5.809h-1.02a7.222 7.222 0 0 0-5.138 2.132 7.222 7.222 0 0 0-2.125 5.138c0 3.927 3.125 7.13 7.017 7.273a7.216 7.216 0 0 0-2.625 5.59c0 4.017 3.269 7.286 7.287 7.286h4.217v3.467z"/>
        <path d="M580.199 122.639a1.23 1.23 0 1 0 0-2.46h-29.2a1.23 1.23 0 1 0 0 2.46h29.2zM556.64 109.665h29.2a1.23 1.23 0 1 0 0-2.46h-29.2a1.23 1.23 0 1 0 0 2.46M11.616 21.218a2.044 2.044 0 1 1-2.044 2.045c0-1.13.916-2.045 2.044-2.045zm-2.043-8.182a2.044 2.044 0 1 1 2.043 2.046 2.044 2.044 0 0 1-2.043-2.046zM3.443 6.9a2.044 2.044 0 0 1-2.044-2.045A2.044 2.044 0 1 1 3.442 6.9zm14.495 3.619a3.36 3.36 0 0 0 5.072-.005l3.011 1.74a3.408 3.408 0 0 0-.1.782 3.415 3.415 0 0 0 2.725 3.341v3.545a3.415 3.415 0 0 0-2.724 3.341c0 .467.097.93.285 1.357l-3.197 1.848a3.359 3.359 0 0 0-5.072-.006l-3.198-1.847a3.402 3.402 0 0 0-2.429-4.689v-3.553a3.372 3.372 0 0 0 2.614-4.113l3.013-1.741zm2.534-4.3a2.044 2.044 0 1 1-2.044 2.045c0-1.13.915-2.046 2.044-2.046zm8.856 4.772a2.044 2.044 0 1 1-2.044 2.045c0-1.13.915-2.045 2.044-2.045zm8.174-9.546c1.129 0 2.044.916 2.044 2.046a2.044 2.044 0 1 1-2.044-2.046zm-6.13 21.818a2.044 2.044 0 1 1-2.044-2.045c1.128 0 2.043.915 2.043 2.045zM28.645 33.49c1.13 0 2.044.916 2.044 2.046a2.044 2.044 0 1 1-2.044-2.046zm-8.174-2.727a2.044 2.044 0 0 1-2.044-2.045 2.044 2.044 0 1 1 2.044 2.045zm-17.03 2.045A2.044 2.044 0 0 1 1.4 30.763a2.044 2.044 0 1 1 2.043 2.045zm34.06-11.59a2.044 2.044 0 1 1-2.044 2.045c0-1.13.915-2.045 2.044-2.045zm-34.06 6.136A3.427 3.427 0 0 0 0 30.766a3.427 3.427 0 0 0 3.41 3.446 3.428 3.428 0 0 0 2.893-5.29l3.406-2.84c1.32.9 3.09.754 4.244-.352l3.305 1.909a3.364 3.364 0 0 0-.192 1.079 3.408 3.408 0 0 0 5.313 2.82l3.151 2.629c-.19.43-.29.897-.29 1.369A3.434 3.434 0 0 0 28.643 39a3.434 3.434 0 0 0 3.461-3.406 3.434 3.434 0 0 0-5.774-2.54l-2.997-2.496c.57-.858.703-1.934.358-2.906L27 25.742a3.392 3.392 0 0 0 5.665-1.797h1.5a3.406 3.406 0 1 0 6.674-1.364 3.406 3.406 0 0 0-6.675 0h-1.499a3.418 3.418 0 0 0-2.656-2.659v-3.545a3.409 3.409 0 0 0 2.143-5.243l3.964-4.535a3.45 3.45 0 0 0 4.573-1.711 3.456 3.456 0 0 0-1.71-4.576 3.45 3.45 0 0 0-4.572 1.711 3.457 3.457 0 0 0 .601 3.772l-3.834 4.386a3.37 3.37 0 0 0-4.571.833l-2.91-1.682c.118-.344.181-.704.185-1.068a3.408 3.408 0 0 0-3.406-3.41 3.408 3.408 0 0 0-3.406 3.41c.005.366.069.728.19 1.074l-2.909 1.681a3.377 3.377 0 0 0-4.606-.824l-3.46-3.463a3.42 3.42 0 0 0-.964-4.739 3.414 3.414 0 0 0-4.734.964 3.42 3.42 0 0 0 .963 4.739 3.413 3.413 0 0 0 3.771 0l3.46 3.463a3.404 3.404 0 0 0 2.172 5.218v3.545a3.395 3.395 0 0 0-2.194 5.182L5.35 27.945a3.384 3.384 0 0 0-1.907-.591z"/>
        <g>
            <path d="M761 383v-1c0-5.514 4.486-10 10-10s10 4.486 10 10c0 6.617 5.383 12 12 12h1c6.065 0 11 4.935 11 11s-4.935 11-11 11c-18.196 0-33-14.804-33-33m44.695 16.361l5.698-2.442-.787-1.838-5.919 2.537a13.075 13.075 0 0 0-3.594-3.497l2.763-4.606-1.715-1.029-2.805 4.674A12.877 12.877 0 0 0 794 392h-.301l4.175-7.514-1.748-.972-4.643 8.358a9.966 9.966 0 0 1-5.333-2.607l2.558-2.558-1.414-1.414-2.459 2.459A9.926 9.926 0 0 1 783 382c0-.051-.007-.101-.008-.152l5.172-.862-.328-1.973-5.039.84a11.905 11.905 0 0 0-1.225-3.522l6.875-3.437-.895-1.789-7.088 3.544a12.14 12.14 0 0 0-1.925-1.973l3.242-4.052-1.562-1.249-3.34 4.175a11.94 11.94 0 0 0-2.745-1.121l.847-4.233-1.961-.392-.851 4.255A12.215 12.215 0 0 0 771 370c-1.038 0-2.039.146-3 .395V363h-2v8.105c-.542.25-1.065.534-1.561.859l-4.67-5.604-1.538 1.28 4.635 5.562a12.156 12.156 0 0 0-1.584 1.784l-2.728-1.819-1.109 1.664 2.804 1.869a11.914 11.914 0 0 0-1.068 3.3H752v2h7v1c0 .728.03 1.449.074 2.166l-4.27.854.393 1.961 4.061-.812c.165 1.386.411 2.748.734 4.08l-6.265 1.79.549 1.923 6.24-1.783c.259.851.555 1.686.876 2.508l-6.837 3.419.895 1.789 6.725-3.362a34.736 34.736 0 0 0 1.603 3.083l-5.33 3.553 1.109 1.664 5.276-3.518a35.25 35.25 0 0 0 2.288 3.071l-2.674 1.783 1.109 1.664 2.905-1.937c.701.749 1.432 1.47 2.196 2.155l-4.425 5.31 1.537 1.28 4.417-5.3c.813.65 1.653 1.266 2.522 1.843l-4.555 7.288 1.695 1.06 4.558-7.293a34.925 34.925 0 0 0 3.528 1.802l-1.882 5.645 1.896.633 1.84-5.519c1.295.484 2.628.888 3.989 1.218l-.758 3.789 1.961.393.754-3.769c1.073.195 2.162.341 3.266.436V425h2v-7.025c.333.009.665.025 1 .025 1.257 0 2.469-.189 3.62-.523l2.485 4.971 1.789-.895-2.395-4.79a13.049 13.049 0 0 0 2.289-1.378l2.412 3.215 1.6-1.2-2.501-3.334a13.128 13.128 0 0 0 1.569-1.952l5.578 3.718 1.109-1.664-5.722-3.815c.478-1.051.814-2.176.997-3.353H814v-2h-7c0-2.022-.477-3.93-1.305-5.639"/>
            <path d="M772 377c2.206 0 4 1.794 4 4s-1.794 4-4 4-4-1.794-4-4 1.794-4 4-4m0 10c3.309 0 6-2.691 6-6s-2.691-6-6-6-6 2.691-6 6 2.691 6 6 6M770 396a1.001 1.001 0 0 1 0-2 1.001 1.001 0 0 1 0 2m0-4c-1.654 0-3 1.346-3 3s1.346 3 3 3 3-1.346 3-3-1.346-3-3-3M780 408c-1.103 0-2-.897-2-2s.897-2 2-2 2 .897 2 2-.897 2-2 2m0-6c-2.206 0-4 1.794-4 4s1.794 4 4 4 4-1.794 4-4-1.794-4-4-4M786 398a1.001 1.001 0 0 1 0-2 1.001 1.001 0 0 1 0 2m0-4c-1.654 0-3 1.346-3 3s1.346 3 3 3 3-1.346 3-3-1.346-3-3-3M796 407c-1.103 0-2-.897-2-2s.897-2 2-2 2 .897 2 2-.897 2-2 2m0-6c-2.206 0-4 1.794-4 4s1.794 4 4 4 4-1.794 4-4-1.794-4-4-4M803.242 376c0-1.654-1.346-3-3-3s-3-1.346-3-3 1.346-3 3-3h1.237c4.281 0 7.763 3.482 7.763 7.763V376c0 1.654-1.346 3-3 3s-3-1.346-3-3zm8-1v-.237a9.76 9.76 0 0 0-.217-2.036l1.664-.832-.895-1.789-1.399.699a9.78 9.78 0 0 0-1.728-2.625l3.175-2.38-1.2-1.6-3.5 2.625a9.714 9.714 0 0 0-1.705-.979l.699-1.399-1.789-.895-.832 1.664a9.82 9.82 0 0 0-2.036-.216h-.237v-2h-2v2.101a4.94 4.94 0 0 0-1.527.609l-.579-1.157-1.789.895.831 1.661a4.946 4.946 0 0 0-.762 1.654l-2.932-.733-.484 1.94 3.323.831c.093.573.288 1.107.56 1.598l-1.957.652.633 1.897 2.752-.917c.385.281.81.5 1.267.662l-1.168 1.752 1.664 1.109 1.622-2.432c.32.167.546.493.546.878 0 .666.137 1.3.374 1.882l-1.929 1.286 1.109 1.664 1.927-1.285c.435.431.95.78 1.518 1.029V385h2v-4a4.94 4.94 0 0 0 2.105-.481l2.188 2.188 1.414-1.414-1.986-1.986A4.967 4.967 0 0 0 811.14 377h2.102v-2h-2z"/>
        </g>
        <g>
            <path d="M811.933 36.655h20.461v20.414c0 .521.411.931.934.931.523 0 .933-.41.933-.931V36.655h18.744l-2.203 1.453c-.41.298-.56.856-.261 1.303.186.261.485.41.784.41a.859.859 0 0 0 .522-.149l4.742-3.166a.922.922 0 0 0 .411-.782.922.922 0 0 0-.41-.783l-4.705-3.166c-.411-.298-1.008-.186-1.307.26a.917.917 0 0 0 .261 1.304l2.203 1.453h-18.78V17.023l1.456 2.198c.186.26.485.41.784.41a.859.859 0 0 0 .522-.15c.411-.297.56-.856.262-1.303l-3.174-4.768a.925.925 0 0 0-.784-.41c-.336 0-.597.149-.747.41l-3.174 4.73c-.298.41-.186 1.007.262 1.305.41.298 1.008.186 1.307-.261l1.456-2.198v17.769h-20.499a.923.923 0 0 0-.933.931c0 .522.41.969.933.969"/>
            <path d="M819.899 26c.11 0 .258-.036.37-.073 1.55-.652 2.843-1.523 3.84-2.647.924-1.016 1.33-1.959 1.958-3.374.259-.544.517-1.16.886-1.922a56.603 56.603 0 0 1 1.921-3.627c.259-.435.11-.98-.37-1.233a.901.901 0 0 0-1.255.362 45.01 45.01 0 0 0-1.958 3.736c-.11.254-.221.472-.332.726-.813-.508-1.551-1.161-2.18-1.85a9.114 9.114 0 0 1-1.44-2.14c-.221-.435-.775-.617-1.256-.4-.443.219-.627.763-.406 1.234.443.907 1.034 1.741 1.7 2.54a13.357 13.357 0 0 0 2.806 2.357c-.48 1.088-.85 1.777-1.477 2.502-.813.907-1.884 1.633-3.14 2.177-.48.181-.701.725-.48 1.197.111.254.48.435.813.435M854.5 44.179l-2.86-2.893a.965.965 0 0 0-1.334-.035.826.826 0 0 0-.038 1.25l2.974 3-2.974 3c-.344.356-.344.928.038 1.249.19.143.42.25.648.25a.985.985 0 0 0 .686-.286l2.86-2.892 2.86 2.892c.19.179.457.286.686.286a.925.925 0 0 0 .648-.25.826.826 0 0 0 .038-1.25l-2.974-3 2.974-3c.344-.357.344-.928-.038-1.25-.381-.32-.991-.32-1.334.036l-2.86 2.893zM824.106 47.5c0 1.975-1.401 3.563-3.106 3.563-1.705 0-3.106-1.588-3.106-3.563s1.401-3.563 3.106-3.563c1.705 0 3.106 1.588 3.106 3.563m-8.106 0c0 3.06 2.235 5.5 5 5.5s5-2.479 5-5.5-2.235-5.5-5-5.5-5 2.44-5 5.5"/>
        </g>
    </g>
</svg>
