<svg xmlns="http://www.w3.org/2000/svg" width="279" height="34" viewBox="0 0 279 34">
    <g fill="#FFF" fill-rule="evenodd">
        <path d="M59.812 26c-.648.12-1.446.18-2.394.18-.948 0-1.758-.06-2.43-.18V1.628l.252-.216h14.832c.144.552.216 1.2.216 1.944s-.21 1.29-.63 1.638c-.42.348-1.086.522-1.998.522h-7.884l.036 3.492v2.7h8.208c.168.528.252 1.182.252 1.962s-.084 1.458-.252 2.034h-8.208V26zm25.62-4.104h6.696c0 .72-.048 1.332-.144 1.836-.264 1.56-1.308 2.34-3.132 2.34h-8.748c-.864 0-1.548-.258-2.052-.774s-.756-1.218-.756-2.106V1.448l.252-.252h1.8c.96 0 1.668.246 2.124.738.456.492.684 1.278.684 2.358V22.04a35.42 35.42 0 0 1 3.276-.144zm26.16-1.476l-1.764.036h-5.04l-1.764-.036-1.692 5.616c-.504.12-1.218.18-2.142.18-.924 0-1.674-.108-2.25-.324l-.18-.252 8.028-24.228c.888-.12 1.848-.18 2.88-.18 1.032 0 1.932.072 2.7.216l7.884 24.228c-.696.408-1.53.612-2.502.612-.972 0-1.668-.18-2.088-.54-.42-.36-.774-1.044-1.062-2.052l-1.008-3.276zm-7.38-3.816l1.62-.036h3.096l1.512.036-1.08-3.672c-.816-2.736-1.464-5.064-1.944-6.984h-.216c-.216 1.032-.744 3.06-1.584 6.084l-1.404 4.572zm18.636 7.236c.072-.672.294-1.35.666-2.034.372-.684.798-1.23 1.278-1.638 2.472 1.584 4.896 2.376 7.272 2.376 1.152 0 2.064-.27 2.736-.81.672-.54 1.008-1.218 1.008-2.034-.048-1.392-.972-2.484-2.772-3.276l-4.248-1.8c-1.68-.696-2.94-1.59-3.78-2.682-.84-1.092-1.26-2.346-1.26-3.762 0-1.08.21-2.064.63-2.952a6.514 6.514 0 0 1 1.8-2.286c.78-.636 1.704-1.134 2.772-1.494 1.068-.36 2.25-.54 3.546-.54 2.64 0 5.232.66 7.776 1.98-.072 1.464-.636 2.688-1.692 3.672-2.424-1.152-4.536-1.728-6.336-1.728-1.152 0-2.034.264-2.646.792-.612.528-.918 1.176-.918 1.944 0 1.104.852 2.016 2.556 2.736l4.248 1.8c1.728.72 3.06 1.668 3.996 2.844.936 1.176 1.404 2.532 1.404 4.068 0 1.08-.192 2.082-.576 3.006a6.184 6.184 0 0 1-1.746 2.376c-.78.66-1.752 1.176-2.916 1.548-1.164.372-2.538.558-4.122.558-3.072 0-5.964-.888-8.676-2.664zm39.228-12.528l-.036-2.664V1.412c.624-.12 1.422-.18 2.394-.18.972 0 1.794.06 2.466.18V26c-.696.12-1.518.18-2.466.18-.948 0-1.746-.06-2.394-.18v-8.028l.036-2.664-1.908.036h-5.076l-1.944-.036.036 2.664V26c-.624.12-1.428.18-2.412.18s-1.788-.06-2.412-.18V1.412c.624-.12 1.428-.18 2.412-.18s1.788.06 2.412.18v7.236l-.036 2.664 1.944-.036h5.076l1.908.036zm32.64-10.116l.252.252v24.48c-.744.168-1.68.252-2.808.252s-2.112-.06-2.952-.18l-6.624-13.932c-.96-2.112-1.68-3.792-2.16-5.04l-.144.036c.264 3.384.396 6.648.396 9.792V26c-.672.12-1.434.18-2.286.18-.852 0-1.59-.06-2.214-.18V1.484c.696-.168 1.608-.252 2.736-.252 1.128 0 2.112.06 2.952.18l6.552 13.932 2.34 5.328.108-.036c-.24-3.48-.36-6.768-.36-9.864V4.184c0-1.08.204-1.848.612-2.304.408-.456 1.092-.684 2.052-.684h1.548zm14.28 18.648l-.036 2.232 2.52-.072h8.82c0 .768-.036 1.356-.108 1.764-.264 1.536-1.296 2.304-3.096 2.304H206.98c-.864 0-1.542-.258-2.034-.774-.492-.516-.738-1.218-.738-2.106V1.664l.252-.252h15.012c.12.6.18 1.242.18 1.926 0 .684-.132 1.398-.396 2.142H208.96l.036 2.484v3.708l2.34-.036h6.084c.192.552.288 1.212.288 1.98s-.096 1.428-.288 1.98h-8.424v4.248zm21.264 4.104L225.868 1.7a6.093 6.093 0 0 1 2.556-.576c.864 0 1.488.186 1.872.558.384.372.66 1.062.828 2.07l1.872 10.728c.528 3.024.84 5.01.936 5.958.096.948.162 1.44.198 1.476.036.036.126.054.27.054l3.42-20.052c.912-.168 1.968-.252 3.168-.252 1.2 0 2.22.084 3.06.252l3.132 19.62c.048.288.168.432.36.432.24-2.04.636-4.56 1.188-7.56l2.376-12.996c.6-.12 1.332-.18 2.196-.18.864 0 1.62.108 2.268.324l.252.288-4.968 24.12a27.61 27.61 0 0 1-3.564.216c-1.272 0-2.154-.144-2.646-.432-.492-.288-.798-.888-.918-1.8l-1.476-8.676c-.552-3.336-.96-6.204-1.224-8.604h-.288c-.312 2.352-.768 5.22-1.368 8.604l-1.908 10.692c-1.152.144-2.34.216-3.564.216-1.224 0-2.088-.144-2.592-.432-.504-.288-.852-.888-1.044-1.8zm30.048-.108c.072-.672.294-1.35.666-2.034.372-.684.798-1.23 1.278-1.638 2.472 1.584 4.896 2.376 7.272 2.376 1.152 0 2.064-.27 2.736-.81.672-.54 1.008-1.218 1.008-2.034-.048-1.392-.972-2.484-2.772-3.276l-4.248-1.8c-1.68-.696-2.94-1.59-3.78-2.682-.84-1.092-1.26-2.346-1.26-3.762 0-1.08.21-2.064.63-2.952a6.514 6.514 0 0 1 1.8-2.286c.78-.636 1.704-1.134 2.772-1.494 1.068-.36 2.25-.54 3.546-.54 2.64 0 5.232.66 7.776 1.98-.072 1.464-.636 2.688-1.692 3.672-2.424-1.152-4.536-1.728-6.336-1.728-1.152 0-2.034.264-2.646.792-.612.528-.918 1.176-.918 1.944 0 1.104.852 2.016 2.556 2.736l4.248 1.8c1.728.72 3.06 1.668 3.996 2.844.936 1.176 1.404 2.532 1.404 4.068 0 1.08-.192 2.082-.576 3.006a6.184 6.184 0 0 1-1.746 2.376c-.78.66-1.752 1.176-2.916 1.548-1.164.372-2.538.558-4.122.558-3.072 0-5.964-.888-8.676-2.664zM32.95 17.45l-2.74.783-2.73-.818a.82.82 0 0 0-.815.204.825.825 0 0 0-.213.812l.783 2.74-.818 2.729a.826.826 0 0 0 1.015 1.03l2.74-.784 2.73.819a.825.825 0 1 0 1.03-1.016l-.785-2.74.819-2.73a.826.826 0 0 0-1.016-1.029M5.62 11.716a.826.826 0 0 0 .812.214l2.74-.783 2.73.818c.29.087.6.01.815-.203a.827.827 0 0 0 .214-.813l-.784-2.739.819-2.73a.826.826 0 0 0-1.017-1.029l-2.738.784-2.73-.818a.82.82 0 0 0-.815.204.825.825 0 0 0-.214.812l.783 2.74-.818 2.729c-.087.287-.01.6.203.814M31.01 1.043l-5.476 1.565L20.079.972a.775.775 0 0 0-.97.958l1.566 5.475-1.636 5.455a.775.775 0 0 0 .957.97l5.476-1.565 5.455 1.636a.776.776 0 0 0 .97-.958l-1.565-5.476 1.635-5.454a.775.775 0 0 0-.957-.97M18.327 13.562a.777.777 0 0 0-1.135-1.062L1.322 29.468l16.968-15.87a1.23 1.23 0 0 0 .037-.036M21.956 15.556a.777.777 0 1 0-1.145-1.052L8.499 27.914l13.41-12.311a.809.809 0 0 0 .047-.047M25.52 25.872a1.245 1.245 0 0 0-1.748.218L17.61 34l7.91-6.162a1.248 1.248 0 0 0 0-1.966M4.328 14.9a1.288 1.288 0 1 0-1.748-1.748L.482 17l3.846-2.1z"/>
    </g>
</svg>
