<svg xmlns="http://www.w3.org/2000/svg" width="29" height="37" viewBox="0 0 29 37">
    <defs>
        <linearGradient id="a" x1="2.799%" x2="97.733%" y1="2.795%" y2="97.729%">
            <stop offset="0%" stop-color="#4949F7"/>
            <stop offset="59.46%" stop-color="#7C43F4"/>
            <stop offset="100%" stop-color="#B02BD1"/>
        </linearGradient>
    </defs>
    <path fill="url(#a)" fill-rule="evenodd" d="M175.186 130.447a6.27 6.27 0 0 1-6.275-6.275 6.27 6.27 0 0 1 6.275-6.274 6.27 6.27 0 0 1 6.274 6.274 6.27 6.27 0 0 1-6.274 6.275m-3.625-19.993c-6.352 1.559-10.561 7.17-10.561 13.718 0 1.442.195 2.806.585 4.053a12.562 12.562 0 0 0 1.831 3.858c.195.312 7.21 9.938 10.328 14.186.701.975 2.143.975 2.884 0 3.118-4.248 10.172-13.913 10.366-14.264.78-1.13 1.364-2.416 1.754-3.78.39-1.286.585-2.65.585-4.053.039-9.041-8.38-16.056-17.772-13.718" transform="translate(-161 -110)"/>
</svg>
